<svg width="13" height="13" viewBox="0 0 13 13" fill="none" xmlns="http://www.w3.org/2000/svg">
<path d="M13 9.90476C13 9.90476 11.6739 8.86565 10.0217 8.86565C9.67391 8.86565 9.32609 8.88776 9.02174 8.93197C9.6087 8.57823 10.2609 8.06973 10.8696 7.45068C12.4565 5.83673 12.7609 3.53741 12.7609 3.53741C12.7609 3.53741 10.5 3.84694 8.91304 5.46088C8.5 5.88095 8.13043 6.32313 7.84782 6.7432C7.97826 6.10204 8.04348 5.35034 8.04348 4.57653C8.04348 2.05612 6.49999 0 6.49999 0C6.49999 0 4.95652 2.05612 4.95652 4.57653C4.95652 5.37245 5.02173 6.10204 5.15216 6.7432C4.84782 6.32313 4.5 5.88095 4.08695 5.46088C2.5 3.84694 0.239125 3.53741 0.239125 3.53741C0.239125 3.53741 0.543476 5.83673 2.13043 7.45068C2.73913 8.06973 3.3913 8.57823 3.97826 8.93197C3.67391 8.88776 3.32608 8.86565 2.97825 8.86565C1.34782 8.86565 0 9.90476 0 9.90476C0 9.90476 1.32608 10.9439 2.97825 10.9439C3.7826 10.9439 4.52174 10.8112 5.06522 10.6122C4.8913 10.7449 4.71738 10.8997 4.54347 11.0765C3.76086 11.8724 3.60869 13 3.60869 13C3.60869 13 4.71739 12.8452 5.5 12.0493C6.02174 11.5187 6.36956 10.9218 6.47826 10.5238C6.56522 10.9218 6.91304 11.4966 7.45652 12.0493C8.23913 12.8452 9.34783 13 9.34783 13C9.34783 13 9.19564 11.8724 8.41303 11.0765C8.23912 10.8997 8.06522 10.7449 7.8913 10.6122C8.43478 10.8112 9.17391 10.9439 9.97825 10.9439C11.6739 10.9218 13 9.90476 13 9.90476Z" fill="#024638"/>
</svg>
