<svg width="16" height="16" viewBox="0 0 16 16" fill="none" xmlns="http://www.w3.org/2000/svg">
<path d="M14 5.9587C13.9931 5.89745 13.9796 5.83712 13.96 5.7787V5.7187C13.9279 5.65015 13.8852 5.58714 13.8333 5.53203V5.53203L9.83333 1.53203C9.77822 1.48018 9.71521 1.43742 9.64667 1.40536C9.62677 1.40254 9.60657 1.40254 9.58667 1.40536C9.51894 1.36653 9.44415 1.34159 9.36667 1.33203H6.66667C6.13623 1.33203 5.62753 1.54275 5.25245 1.91782C4.87738 2.29289 4.66667 2.8016 4.66667 3.33203V3.9987H4C3.46957 3.9987 2.96086 4.20941 2.58579 4.58448C2.21071 4.95956 2 5.46827 2 5.9987V12.6654C2 13.1958 2.21071 13.7045 2.58579 14.0796C2.96086 14.4547 3.46957 14.6654 4 14.6654H9.33333C9.86377 14.6654 10.3725 14.4547 10.7475 14.0796C11.1226 13.7045 11.3333 13.1958 11.3333 12.6654V11.9987H12C12.5304 11.9987 13.0391 11.788 13.4142 11.4129C13.7893 11.0378 14 10.5291 14 9.9987V5.9987C14 5.9987 14 5.9987 14 5.9587ZM10 3.60536L11.7267 5.33203H10.6667C10.4899 5.33203 10.3203 5.26179 10.1953 5.13677C10.0702 5.01174 10 4.84218 10 4.66536V3.60536ZM10 12.6654C10 12.8422 9.92976 13.0117 9.80474 13.1368C9.67971 13.2618 9.51014 13.332 9.33333 13.332H4C3.82319 13.332 3.65362 13.2618 3.5286 13.1368C3.40357 13.0117 3.33333 12.8422 3.33333 12.6654V5.9987C3.33333 5.82189 3.40357 5.65232 3.5286 5.52729C3.65362 5.40227 3.82319 5.33203 4 5.33203H4.66667V9.9987C4.66667 10.5291 4.87738 11.0378 5.25245 11.4129C5.62753 11.788 6.13623 11.9987 6.66667 11.9987H10V12.6654ZM12.6667 9.9987C12.6667 10.1755 12.5964 10.3451 12.4714 10.4701C12.3464 10.5951 12.1768 10.6654 12 10.6654H6.66667C6.48986 10.6654 6.32029 10.5951 6.19526 10.4701C6.07024 10.3451 6 10.1755 6 9.9987V3.33203C6 3.15522 6.07024 2.98565 6.19526 2.86063C6.32029 2.7356 6.48986 2.66536 6.66667 2.66536H8.66667V4.66536C8.66667 5.1958 8.87738 5.70451 9.25245 6.07958C9.62753 6.45465 10.1362 6.66536 10.6667 6.66536H12.6667V9.9987Z" fill="white"/>
</svg>
