<svg width="17" height="17" viewBox="0 0 17 17" fill="none" xmlns="http://www.w3.org/2000/svg">
<path d="M1.41666 8.50002L1.02622 8.18767L0.776344 8.50002L1.02622 8.81237L1.41666 8.50002ZM7.79166 9.00002C8.0678 9.00002 8.29166 8.77616 8.29166 8.50002C8.29166 8.22388 8.0678 8.00002 7.79166 8.00002V9.00002ZM3.85956 4.646L1.02622 8.18767L1.80709 8.81237L4.64042 5.2707L3.85956 4.646ZM1.02622 8.81237L3.85956 12.354L4.64042 11.7293L1.80709 8.18767L1.02622 8.81237ZM1.41666 9.00002H7.79166V8.00002H1.41666V9.00002Z" fill="#024638"/>
<path d="M7.92406 14.1022L7.63424 14.5096L7.92406 14.1022ZM7.28519 13.348L7.73473 13.1291L7.28519 13.348ZM15.1241 13.6371L14.7007 13.3712L15.1241 13.6371ZM13.739 14.8104L13.5464 14.349L13.739 14.8104ZM13.739 2.1896L13.5464 2.65101L13.739 2.1896ZM15.1241 3.36295L15.5476 3.0971L15.1241 3.36295ZM15.0833 7.24538V9.75464H16.0833V7.24538H15.0833ZM7.58334 5.76013V5.62189H6.58334V5.76013H7.58334ZM9.91485 14.1317C9.39591 14.0452 9.03607 13.9849 8.75786 13.915C8.48636 13.8467 8.33114 13.7781 8.21388 13.6947L7.63424 14.5096C7.89269 14.6934 8.1808 14.8011 8.51419 14.8848C8.84086 14.9669 9.24748 15.0343 9.75045 15.1181L9.91485 14.1317ZM6.58334 11.3801C6.58334 11.8898 6.58296 12.3018 6.61021 12.6374C6.63803 12.98 6.69681 13.2818 6.83565 13.5669L7.73473 13.1291C7.67172 12.9997 7.62958 12.8354 7.60693 12.5565C7.58373 12.2707 7.58334 11.906 7.58334 11.3801H6.58334ZM8.21388 13.6947C8.00936 13.5493 7.84461 13.3548 7.73473 13.1291L6.83565 13.5669C7.01878 13.943 7.29337 14.2671 7.63424 14.5096L8.21388 13.6947ZM15.0833 9.75464C15.0833 10.8146 15.0828 11.575 15.0281 12.163C14.9739 12.7456 14.8702 13.1012 14.7007 13.3712L15.5476 13.9029C15.8373 13.4415 15.9632 12.9062 16.0238 12.2557C16.0839 11.6105 16.0833 10.7954 16.0833 9.75464H15.0833ZM9.75045 15.1181C10.7774 15.2893 11.5817 15.4238 12.2282 15.4707C12.88 15.5179 13.4288 15.4817 13.9317 15.2718L13.5464 14.349C13.2522 14.4718 12.8844 14.5156 12.3005 14.4733C11.7112 14.4306 10.9608 14.306 9.91485 14.1317L9.75045 15.1181ZM14.7007 13.3712C14.4261 13.8085 14.0229 14.1501 13.5464 14.349L13.9317 15.2718C14.5987 14.9934 15.1632 14.5152 15.5476 13.9029L14.7007 13.3712ZM9.91615 2.86811C10.9617 2.69386 11.7118 2.56935 12.3008 2.52668C12.8844 2.4844 13.2522 2.5282 13.5464 2.65101L13.9317 1.72819C13.4289 1.5183 12.8802 1.48208 12.2285 1.52929C11.5822 1.57612 10.7783 1.71062 9.75175 1.88172L9.91615 2.86811ZM16.0833 7.24538C16.0833 6.20467 16.0839 5.38955 16.0238 4.74437C15.9632 4.09384 15.8373 3.55854 15.5476 3.0971L14.7007 3.6288C14.8702 3.89882 14.9739 4.25441 15.0281 4.83707C15.0828 5.42507 15.0833 6.18545 15.0833 7.24538H16.0833ZM13.5464 2.65101C14.0229 2.84993 14.4261 3.1915 14.7007 3.6288L15.5476 3.0971C15.1632 2.48487 14.5987 2.00667 13.9317 1.72819L13.5464 2.65101ZM9.75175 1.88172C9.24808 1.96566 8.84088 2.03314 8.51375 2.11539C8.17986 2.19933 7.89135 2.30722 7.63261 2.49159L8.2129 3.30599C8.33033 3.22232 8.48574 3.15355 8.75758 3.0852C9.03616 3.01516 9.39647 2.95472 9.91615 2.86811L9.75175 1.88172ZM7.58334 5.62189C7.58334 5.09505 7.58373 4.7297 7.60702 4.44339C7.62974 4.16402 7.67203 3.99942 7.73526 3.86983L6.83653 3.43132C6.69721 3.71686 6.63822 4.01918 6.61031 4.36232C6.58296 4.69852 6.58334 5.11127 6.58334 5.62189H7.58334ZM7.63261 2.49159C7.29303 2.73354 7.01937 3.05659 6.83653 3.43132L7.73526 3.86983C7.84496 3.64499 8.00916 3.45117 8.2129 3.30599L7.63261 2.49159Z" fill="#024638"/>
</svg>
