<svg width="100" height="100" viewBox="0 0 100 100" fill="none" xmlns="http://www.w3.org/2000/svg">
<path d="M50 87.5V54.1667M50 87.5L21.6709 67.2649C21.2603 66.9716 21.055 66.825 20.9442 66.6096C20.8333 66.3943 20.8333 66.142 20.8333 65.6374V33.3333M50 87.5L78.3291 67.2649C78.7397 66.9716 78.945 66.825 79.0558 66.6096C79.1667 66.3943 79.1667 66.142 79.1667 65.6374V33.3333M50 54.1667L20.8333 33.3333M50 54.1667L79.1667 33.3333M20.8333 33.3333L48.8375 13.3303C49.3989 12.9294 49.6795 12.7289 50 12.7289C50.3205 12.7289 50.6011 12.9294 51.1625 13.3303L79.1667 33.3333" stroke="white" stroke-width="3" stroke-linejoin="round"/>
</svg>
