<svg width="100" height="100" viewBox="0 0 100 100" fill="none" xmlns="http://www.w3.org/2000/svg">
<path d="M29.1667 49.8333C29.1667 47.9476 29.1667 47.0048 29.7524 46.419C30.3382 45.8333 31.281 45.8333 33.1667 45.8333H66.8333C68.7189 45.8333 69.6617 45.8333 70.2475 46.419C70.8333 47.0048 70.8333 47.9476 70.8333 49.8333V79.4999C70.8333 83.2711 70.8333 85.1568 69.6617 86.3283C68.4902 87.4999 66.6046 87.4999 62.8333 87.4999H37.1667C33.3954 87.4999 31.5098 87.4999 30.3382 86.3283C29.1667 85.1568 29.1667 83.2712 29.1667 79.4999V49.8333Z" stroke="white" stroke-width="3"/>
<path d="M37.5 29C37.5 27.1144 37.5 26.1716 38.0858 25.5858C38.6716 25 39.6144 25 41.5 25H58.5C60.3856 25 61.3284 25 61.9142 25.5858C62.5 26.1716 62.5 27.1144 62.5 29V45.8333H37.5V29Z" stroke="white" stroke-width="3"/>
<path d="M50 45.8333V62.4999" stroke="white" stroke-width="3"/>
<path d="M62.5 12.5L54.1667 25" stroke="white" stroke-width="3"/>
<path d="M37.5 12.5L45.8333 25" stroke="white" stroke-width="3"/>
<path d="M29.1667 66.6667H8.33332" stroke="white" stroke-width="3"/>
<path d="M91.6667 66.6667H70.8333" stroke="white" stroke-width="3"/>
<path d="M83.3333 37.5V48.1667C83.3333 50.9951 83.3333 52.4093 82.4546 53.288C81.576 54.1667 80.1617 54.1667 77.3333 54.1667H70.8333" stroke="white" stroke-width="3"/>
<path d="M83.3333 91.6667V85.1667C83.3333 82.3383 83.3333 80.9241 82.4546 80.0454C81.576 79.1667 80.1617 79.1667 77.3333 79.1667H70.8333" stroke="white" stroke-width="3"/>
<path d="M16.6667 37.5V48.1667C16.6667 50.9951 16.6667 52.4093 17.5453 53.288C18.424 54.1667 19.8382 54.1667 22.6667 54.1667H29.1667" stroke="white" stroke-width="3"/>
<path d="M16.6667 91.6667V85.1667C16.6667 82.3383 16.6667 80.9241 17.5453 80.0454C18.424 79.1667 19.8382 79.1667 22.6667 79.1667H29.1667" stroke="white" stroke-width="3"/>
</svg>
