<svg width="17" height="17" viewBox="0 0 17 17" fill="none" xmlns="http://www.w3.org/2000/svg">
<path d="M3.60305 10.2866L3.1743 10.0293L3.60305 10.2866ZM3.7065 12.7328L3.61415 13.2242L3.7065 12.7328ZM2.95343 11.4027L2.48454 11.2291L2.95343 11.4027ZM13.2935 12.7328L13.2012 12.2414L13.2935 12.7328ZM13.8064 10.969L14.2351 10.7118L13.8064 10.969ZM14.0466 11.4027L13.5777 11.5764L14.0466 11.4027ZM12.4328 6.35335L11.9358 6.40856L12.4328 6.35335ZM12.798 12.25H4.202V13.25H12.798V12.25ZM11.9358 6.40856L12.1142 8.0138L13.1081 7.90337L12.9297 6.29813L11.9358 6.40856ZM4.8858 8.0138L5.06416 6.40856L4.07028 6.29813L3.89192 7.90337L4.8858 8.0138ZM3.62235 11.2262L4.03179 10.5438L3.1743 10.0293L2.76486 10.7118L3.62235 11.2262ZM12.9682 10.5438L13.3776 11.2262L14.2351 10.7118L13.8257 10.0293L12.9682 10.5438ZM3.89192 7.90337C3.80836 8.65539 3.56359 9.38053 3.1743 10.0293L4.03179 10.5438C4.49507 9.77171 4.78637 8.90874 4.8858 8.0138L3.89192 7.90337ZM12.1142 8.0138C12.2136 8.90874 12.5049 9.77171 12.9682 10.5438L13.8257 10.0293C13.4364 9.38053 13.1916 8.65538 13.1081 7.90337L12.1142 8.0138ZM4.202 12.25C3.90434 12.25 3.832 12.2476 3.79884 12.2414L3.61415 13.2242C3.76408 13.2524 3.96105 13.25 4.202 13.25V12.25ZM2.76486 10.7118C2.64089 10.9184 2.53752 11.086 2.48454 11.2291L3.42231 11.5764C3.43402 11.5447 3.46921 11.4815 3.62235 11.2262L2.76486 10.7118ZM3.79884 12.2414C3.49444 12.1842 3.31475 11.8668 3.42231 11.5764L2.48454 11.2291C2.16186 12.1005 2.70095 13.0526 3.61415 13.2242L3.79884 12.2414ZM12.798 13.25C13.039 13.25 13.2359 13.2524 13.3859 13.2242L13.2012 12.2414C13.168 12.2476 13.0957 12.25 12.798 12.25V13.25ZM13.3776 11.2262C13.5308 11.4815 13.566 11.5447 13.5777 11.5764L14.5155 11.2291C14.4625 11.086 14.3591 10.9184 14.2351 10.7118L13.3776 11.2262ZM13.3859 13.2242C14.2991 13.0526 14.8381 12.1005 14.5155 11.2291L13.5777 11.5764C13.6853 11.8668 13.5056 12.1842 13.2012 12.2414L13.3859 13.2242ZM8.5 3.33334C10.2615 3.33334 11.7413 4.65784 11.9358 6.40856L12.9297 6.29813C12.6789 4.04097 10.771 2.33334 8.5 2.33334V3.33334ZM8.5 2.33334C6.22895 2.33334 4.32108 4.04097 4.07028 6.29813L5.06416 6.40856C5.25869 4.65784 6.7385 3.33334 8.5 3.33334V2.33334Z" fill="#024638"/>
<path d="M6.44741 13.0375C6.56848 13.5646 6.83526 14.0305 7.20638 14.3627C7.5775 14.6949 8.03221 14.875 8.5 14.875C8.96778 14.875 9.4225 14.6949 9.79362 14.3627C10.1647 14.0305 10.4315 13.5646 10.5526 13.0375" stroke="#024638" stroke-linecap="round"/>
</svg>
