<svg width="36" height="36" viewBox="0 0 36 36" fill="none" xmlns="http://www.w3.org/2000/svg">
<path d="M23.0441 22.2892L22.6905 21.9357L23.0441 22.2892ZM26.1516 20.596L25.798 20.9495L26.1516 20.596ZM24.7373 20.596L24.3838 20.2424L24.7373 20.596ZM30.2929 24.7373L29.9393 25.0909L30.2929 24.7373ZM9.67962 7.87593L9.32607 7.52238L9.67962 7.87593ZM10.4949 6.35355L9.32607 7.52238L10.0332 8.22948L11.202 7.06066L10.4949 6.35355ZM29.4776 27.6739L30.6464 26.5051L29.9393 25.798L28.7705 26.9668L29.4776 27.6739ZM30.6464 24.3838L26.5051 20.2424L25.798 20.9495L29.9393 25.0909L30.6464 24.3838ZM16.7576 10.4949L12.6162 6.35355L11.9091 7.06066L16.0505 11.202L16.7576 10.4949ZM15.0643 14.3095L16.7576 12.6162L16.0505 11.9091L14.3572 13.6024L15.0643 14.3095ZM24.3838 20.2424L22.6905 21.9357L23.3976 22.6428L25.0909 20.9495L24.3838 20.2424ZM8.72226 16.0186L11.9619 20.3381L12.7619 19.7381L9.52226 15.4186L8.72226 16.0186ZM16.6619 25.0381L20.9814 28.2777L21.5814 27.4777L17.2619 24.2381L16.6619 25.0381ZM11.9619 20.3381C13.298 22.1195 14.8805 23.702 16.6619 25.0381L17.2619 24.2381C15.5563 22.9589 14.0411 21.4437 12.7619 19.7381L11.9619 20.3381ZM22.4129 21.9807C19.2133 20.381 16.619 17.7867 15.0192 14.5871L14.1248 15.0343C15.8213 18.4274 18.5726 21.1787 21.9657 22.8752L22.4129 21.9807ZM22.6905 21.9357C22.6173 22.0089 22.5055 22.0271 22.4129 21.9807L21.9657 22.8752C22.4432 23.114 23.0201 23.0204 23.3976 22.6428L22.6905 21.9357ZM14.3572 13.6024C13.9796 13.9799 13.886 14.5568 14.1248 15.0343L15.0192 14.5871C14.9729 14.4945 14.9911 14.3827 15.0643 14.3095L14.3572 13.6024ZM16.0505 11.202C16.2457 11.3973 16.2457 11.7138 16.0505 11.9091L16.7576 12.6162C17.3433 12.0304 17.3433 11.0807 16.7576 10.4949L16.0505 11.202ZM26.5051 20.2424C25.9193 19.6567 24.9696 19.6567 24.3838 20.2424L25.0909 20.9495C25.2862 20.7543 25.6027 20.7543 25.798 20.9495L26.5051 20.2424ZM30.6464 26.5051C31.2322 25.9193 31.2322 24.9696 30.6464 24.3838L29.9393 25.0909C30.1346 25.2862 30.1346 25.6027 29.9393 25.798L30.6464 26.5051ZM28.7705 26.9668C26.8351 28.9022 23.7711 29.12 21.5814 27.4777L20.9814 28.2777C23.5692 30.2186 27.1903 29.9612 29.4776 27.6739L28.7705 26.9668ZM9.32607 7.52238C7.03877 9.80967 6.78143 13.4308 8.72226 16.0186L9.52226 15.4186C7.88002 13.2289 8.09777 10.1649 10.0332 8.22948L9.32607 7.52238ZM11.202 7.06066C11.3973 6.8654 11.7138 6.8654 11.9091 7.06066L12.6162 6.35355C12.0304 5.76777 11.0807 5.76777 10.4949 6.35355L11.202 7.06066Z" fill="#024638"/>
</svg>
