<svg width="10" height="10" viewBox="0 0 10 10" fill="none" xmlns="http://www.w3.org/2000/svg">
<path fill-rule="evenodd" clip-rule="evenodd" d="M0.847271 3.58333H9.15305C9.12572 3.03497 9.04415 2.69288 8.80071 2.44944C8.4346 2.08333 7.84534 2.08333 6.66683 2.08333H3.3335C2.15498 2.08333 1.56573 2.08333 1.19961 2.44944C0.956177 2.69288 0.874605 3.03497 0.847271 3.58333ZM9.16683 5.58333H0.833496V5.83333C0.833496 7.01184 0.833496 7.60109 1.19961 7.96721C1.56573 8.33333 2.15498 8.33333 3.3335 8.33333H6.66683C7.84534 8.33333 8.4346 8.33333 8.80071 7.96721C9.16683 7.6011 9.16683 7.01184 9.16683 5.83334V5.83333L9.16683 5.58333ZM2.91683 5.66666C2.36454 5.66666 1.91683 6.11438 1.91683 6.66666C1.91683 7.21895 2.36454 7.66666 2.91683 7.66666H2.921C3.47328 7.66666 3.921 7.21895 3.921 6.66666C3.921 6.11438 3.47328 5.66666 2.921 5.66666H2.91683Z" fill="white"/>
</svg>
