<svg width="24" height="24" viewBox="0 0 24 24" fill="none" xmlns="http://www.w3.org/2000/svg">
<path d="M8 8L8 7C8 4.79086 9.79086 3 12 3V3C14.2091 3 16 4.79086 16 7L16 8" stroke="#024638" stroke-linecap="round"/>
<path d="M14.5 14C14.5 14.2761 14.7239 14.5 15 14.5C15.2761 14.5 15.5 14.2761 15.5 14H14.5ZM15.5 12C15.5 11.7239 15.2761 11.5 15 11.5C14.7239 11.5 14.5 11.7239 14.5 12H15.5ZM15.5 14V12H14.5V14H15.5Z" fill="#024638"/>
<path d="M8.5 14C8.5 14.2761 8.72386 14.5 9 14.5C9.27614 14.5 9.5 14.2761 9.5 14H8.5ZM9.5 12C9.5 11.7239 9.27614 11.5 9 11.5C8.72386 11.5 8.5 11.7239 8.5 12H9.5ZM9.5 14V12H8.5V14H9.5Z" fill="#024638"/>
<path d="M18.8284 19.8284L19.182 20.182L18.8284 19.8284ZM19.4142 8.58579L19.7678 8.23223L19.4142 8.58579ZM8 8.5H16V7.5H8V8.5ZM19.5 12V13H20.5V12H19.5ZM4.5 13V12H3.5V13H4.5ZM12 20.5C10.1002 20.5 8.72573 20.4989 7.67754 20.358C6.64373 20.219 6.00253 19.9523 5.52513 19.4749L4.81802 20.182C5.51219 20.8762 6.39959 21.1952 7.54429 21.3491C8.67461 21.5011 10.1285 21.5 12 21.5V20.5ZM3.5 13C3.5 14.8715 3.49894 16.3254 3.65091 17.4557C3.80481 18.6004 4.12385 19.4878 4.81802 20.182L5.52513 19.4749C5.04772 18.9975 4.78098 18.3563 4.64199 17.3225C4.50106 16.2743 4.5 14.8998 4.5 13H3.5ZM19.5 13C19.5 14.8998 19.4989 16.2743 19.358 17.3225C19.219 18.3563 18.9523 18.9975 18.4749 19.4749L19.182 20.182C19.8762 19.4878 20.1952 18.6004 20.3491 17.4557C20.5011 16.3254 20.5 14.8715 20.5 13H19.5ZM12 21.5C13.8715 21.5 15.3254 21.5011 16.4557 21.3491C17.6004 21.1952 18.4878 20.8762 19.182 20.182L18.4749 19.4749C17.9975 19.9523 17.3563 20.219 16.3225 20.358C15.2743 20.4989 13.8998 20.5 12 20.5V21.5ZM16 8.5C16.9569 8.5 17.6244 8.50106 18.1279 8.56876C18.6171 8.63453 18.8762 8.75483 19.0607 8.93934L19.7678 8.23223C19.3665 7.83096 18.8612 7.65836 18.2612 7.57768C17.6755 7.49894 16.9287 7.5 16 7.5V8.5ZM20.5 12C20.5 11.0713 20.5011 10.3245 20.4223 9.73883C20.3416 9.13876 20.169 8.63351 19.7678 8.23223L19.0607 8.93934C19.2452 9.12385 19.3655 9.3829 19.4312 9.87208C19.4989 10.3756 19.5 11.0431 19.5 12H20.5ZM8 7.5C7.07133 7.5 6.32452 7.49894 5.73883 7.57768C5.13876 7.65836 4.63351 7.83096 4.23223 8.23223L4.93934 8.93934C5.12385 8.75483 5.3829 8.63453 5.87208 8.56876C6.37565 8.50106 7.04306 8.5 8 8.5V7.5ZM4.5 12C4.5 11.0431 4.50106 10.3756 4.56876 9.87208C4.63453 9.3829 4.75483 9.12385 4.93934 8.93934L4.23223 8.23223C3.83096 8.63351 3.65836 9.13876 3.57768 9.73883C3.49894 10.3245 3.5 11.0713 3.5 12H4.5Z" fill="#024638"/>
</svg>
