<svg width="17" height="17" viewBox="0 0 17 17" fill="none" xmlns="http://www.w3.org/2000/svg">
<path d="M10.0131 2.38101L9.51512 2.42645L9.51577 2.43268L10.0131 2.38101ZM10.0131 2.38095L10.511 2.33551L10.5106 2.33119L10.0131 2.38095ZM10.0131 2.38106L10.5106 2.33131L10.5104 2.32939L10.0131 2.38106ZM10.0368 2.58825L10.529 2.50064L10.529 2.50064L10.0368 2.58825ZM11.5935 3.2331L11.8797 3.64313L11.8797 3.64313L11.5935 3.2331ZM11.7568 3.10329L12.0734 3.49027L12.0734 3.49027L11.7568 3.10329ZM11.8477 3.0307L11.5517 2.62774L11.5517 2.62774L11.8477 3.0307ZM13.109 3.09361L12.7744 3.46511L12.7744 3.46511L13.109 3.09361ZM13.1922 3.17488L12.8386 3.52843L13.1922 3.17488ZM13.8251 3.80775L13.4715 4.16131L13.4792 4.16899L13.4872 4.17633L13.8251 3.80775ZM13.8251 3.80776L14.1786 3.45422L14.171 3.44653L14.1629 3.43918L13.8251 3.80776ZM13.9064 3.89096L13.5348 4.2256V4.2256L13.9064 3.89096ZM13.9693 5.15226L14.3722 5.44828L14.3722 5.44828L13.9693 5.15226ZM13.8967 5.24309L13.5097 4.92645L13.5063 4.93074L13.8967 5.24309ZM13.8967 5.24314L14.2748 5.57022L14.2811 5.56297L14.2871 5.55549L13.8967 5.24314ZM13.8966 5.24317L13.5183 4.91597L13.5097 4.92656L13.8966 5.24317ZM13.7668 5.40644L13.3568 5.1203L13.3568 5.12031L13.7668 5.40644ZM14.4117 6.96322L14.4993 6.47096L14.4117 6.96322ZM14.619 6.98689L14.6687 6.48937L14.619 6.98689ZM14.7346 6.99982L14.8102 6.50557L14.8102 6.50557L14.7346 6.99982ZM15.582 7.93616L15.0826 7.96224L15.0826 7.96225L15.582 7.93616ZM15.582 9.06374L15.0826 9.0377L15.0826 9.03771L15.582 9.06374ZM14.7345 10.0002L14.8101 10.4944L14.8101 10.4944L14.7345 10.0002ZM14.619 10.0131L14.6688 10.5106H14.6688L14.619 10.0131ZM14.4121 10.0367L14.4996 10.529L14.4996 10.529L14.4121 10.0367ZM13.7672 11.5936L13.3572 11.8798L13.3572 11.8798L13.7672 11.5936ZM13.8968 11.7566L13.5098 12.0732V12.0732L13.8968 11.7566ZM13.9692 11.8473L13.5663 12.1434L13.5663 12.1434L13.9692 11.8473ZM13.9063 13.1088L14.2778 13.4435L14.2778 13.4435L13.9063 13.1088ZM13.8252 13.1918L13.4716 12.8383L13.4716 12.8383L13.8252 13.1918ZM13.109 13.9061L13.4437 14.2776L13.4437 14.2776L13.109 13.9061ZM11.8477 13.969L12.1437 13.566L12.1437 13.566L11.8477 13.969ZM11.7568 13.8964L11.4402 14.2834L11.4402 14.2834L11.7568 13.8964ZM11.5936 13.7666L11.8797 13.3565L11.8797 13.3565L11.5936 13.7666ZM10.0368 14.4114L10.529 14.499V14.499L10.0368 14.4114ZM10.0131 14.6187L9.51559 14.569L9.51537 14.5713L10.0131 14.6187ZM10.0131 14.6188L10.5106 14.6686L10.5109 14.6662L10.0131 14.6188ZM10.0002 14.7347L9.50591 14.659V14.659L10.0002 14.7347ZM9.06389 15.582L9.03778 15.0826H9.03777L9.06389 15.582ZM7.93617 15.582L7.96225 15.0826H7.96224L7.93617 15.582ZM6.99982 14.7346L6.50557 14.8102L6.99982 14.7346ZM6.98689 14.619L7.48456 14.5692L7.48303 14.557L6.98689 14.619ZM6.98689 14.619L6.48914 14.6664L6.48984 14.6737L6.49075 14.681L6.98689 14.619ZM6.98688 14.6189L7.48464 14.5715L7.4844 14.5691L6.98688 14.6189ZM6.96322 14.4117L6.47096 14.4993L6.47096 14.4993L6.96322 14.4117ZM5.40645 13.7668L5.69257 14.1769L5.69257 14.1769L5.40645 13.7668ZM5.24313 13.8967L4.92642 13.5096L4.91773 13.5171L5.24313 13.8967ZM5.2431 13.8967L5.55979 14.2838L5.56849 14.2763L5.2431 13.8967ZM5.15222 13.9693L5.44823 14.3723L5.44824 14.3723L5.15222 13.9693ZM3.89094 13.9064L4.22557 13.5349L4.22557 13.5349L3.89094 13.9064ZM3.80771 13.8251L4.16127 13.4715L4.16127 13.4715L3.80771 13.8251ZM3.17486 13.1922L3.52841 12.8387L3.52741 12.8377L3.17486 13.1922ZM3.1748 13.1922L2.82124 13.5457L2.82224 13.5467L3.1748 13.1922ZM3.09357 13.109L3.46508 12.7744L3.46508 12.7744L3.09357 13.109ZM3.03066 11.8477L3.43362 12.1437L3.43363 12.1437L3.03066 11.8477ZM3.10322 11.7569L3.49021 12.0735L3.49236 12.0709L3.10322 11.7569ZM3.10327 11.7568L2.71628 11.4402L2.71414 11.4429L3.10327 11.7568ZM3.2331 11.5935L3.64313 11.8797L3.64313 11.8797L3.2331 11.5935ZM2.58825 10.0368L2.67587 9.54449L2.67586 9.54449L2.58825 10.0368ZM2.381 10.0131L2.43076 9.51555L2.4264 9.51516L2.381 10.0131ZM2.38088 10.0131L2.33112 10.5106L2.33548 10.511L2.38088 10.0131ZM2.26541 10.0002L2.34104 9.50592H2.34104L2.26541 10.0002ZM1.41802 9.0638L0.918696 9.08987L1.41802 9.0638ZM1.41666 8.9475H0.916656H1.41666ZM1.41666 8.05257H1.91666H1.41666ZM1.41802 7.93611L0.918702 7.91L0.918702 7.91L1.41802 7.93611ZM2.26534 6.99982L2.18969 6.50558L2.18969 6.50558L2.26534 6.99982ZM2.38109 6.98688L2.33134 6.48936H2.33134L2.38109 6.98688ZM2.58862 6.96318L2.67629 7.45544L2.67629 7.45544L2.58862 6.96318ZM3.23342 5.4065L2.82336 5.69258L2.82336 5.69258L3.23342 5.4065ZM3.1034 5.24295L2.71294 5.55532L2.71642 5.55957L3.1034 5.24295ZM3.1034 5.24294L3.49383 4.9306L3.47653 4.90897L3.45695 4.88939L3.1034 5.24294ZM3.10339 5.24294L2.71641 5.55956L2.73221 5.57886L2.74984 5.5965L3.10339 5.24294ZM3.03064 5.15186L3.43363 4.85589L3.43363 4.85589L3.03064 5.15186ZM3.09354 3.89072L3.46508 4.22532L3.46508 4.22532L3.09354 3.89072ZM3.17498 3.80734L3.52853 4.1609L3.52853 4.1609L3.17498 3.80734ZM3.80775 3.17458L3.45738 2.81784L3.45419 2.82102L3.80775 3.17458ZM3.80777 3.17456L4.15813 3.53129L4.16132 3.52811L3.80777 3.17456ZM3.89097 3.09328L4.2256 3.46479L4.2256 3.46479L3.89097 3.09328ZM5.15226 3.03037L5.44827 2.62741L5.44826 2.62741L5.15226 3.03037ZM5.24321 3.10303L5.56332 2.7189L5.55983 2.71605L5.24321 3.10303ZM5.24323 3.10304L4.92312 3.48717L4.92661 3.49002L5.24323 3.10304ZM5.40638 3.23276L5.69255 2.82276L5.69255 2.82276L5.40638 3.23276ZM6.96327 2.58787L6.471 2.50031L6.471 2.50031L6.96327 2.58787ZM6.9869 2.38091L7.48442 2.43067V2.43067L6.9869 2.38091ZM6.9998 2.26549L6.50555 2.1899L6.50555 2.18991L6.9998 2.26549ZM7.93625 1.41801L7.96228 1.91733H7.96228L7.93625 1.41801ZM9.0638 1.41802L9.03774 1.91734L9.0638 1.41802ZM10.0002 2.26541L10.4944 2.1898L10.4944 2.18979L10.0002 2.26541ZM10.511 2.33557L10.511 2.33551L9.51516 2.42638L9.51516 2.42645L10.511 2.33557ZM10.5104 2.32939L10.5104 2.32934L9.51577 2.43268L9.51578 2.43273L10.5104 2.32939ZM10.529 2.50064C10.5266 2.48705 10.5231 2.45615 10.5106 2.33131L9.51558 2.43082C9.5257 2.53202 9.5335 2.61415 9.54449 2.67587L10.529 2.50064ZM11.3074 2.82306C11.008 3.03197 10.593 2.86005 10.529 2.50064L9.54449 2.67586C9.73639 3.75408 10.9816 4.26985 11.8797 3.64313L11.3074 2.82306ZM11.4402 2.71631C11.3431 2.79578 11.3187 2.81516 11.3074 2.82307L11.8797 3.64313C11.9311 3.60725 11.9947 3.5547 12.0734 3.49027L11.4402 2.71631ZM11.5517 2.62774C11.5175 2.65283 11.482 2.68208 11.4402 2.71631L12.0734 3.49027C12.1247 3.44831 12.1358 3.43946 12.1437 3.43366L11.5517 2.62774ZM13.4436 2.72211C12.9151 2.24603 12.1249 2.20662 11.5517 2.62774L12.1437 3.43366C12.3348 3.29328 12.5982 3.30642 12.7744 3.46511L13.4436 2.72211ZM13.5457 2.82133C13.5075 2.7831 13.4751 2.75046 13.4436 2.7221L12.7744 3.46511C12.7816 3.47167 12.7918 3.48157 12.8386 3.52843L13.5457 2.82133ZM14.1786 3.4542L13.5457 2.82133L12.8386 3.52843L13.4715 4.16131L14.1786 3.4542ZM14.1629 3.43918L14.1629 3.43918L13.4872 4.17633L13.4872 4.17634L14.1629 3.43918ZM14.2779 3.55632C14.2495 3.52484 14.2169 3.49243 14.1786 3.45422L13.4715 4.16131C13.5184 4.20818 13.5283 4.21832 13.5348 4.2256L14.2779 3.55632ZM14.3722 5.44828C14.7933 4.87502 14.7539 4.08483 14.2779 3.55632L13.5348 4.2256C13.6935 4.40177 13.7067 4.66517 13.5663 4.85625L14.3722 5.44828ZM14.2837 5.55972C14.3179 5.51789 14.3471 5.48242 14.3722 5.44828L13.5663 4.85625C13.5605 4.86414 13.5517 4.87522 13.5097 4.92647L14.2837 5.55972ZM14.2871 5.55549L14.2871 5.55544L13.5063 4.93074L13.5062 4.9308L14.2871 5.55549ZM14.2748 5.57025L14.2748 5.57022L13.5185 4.91607L13.5185 4.9161L14.2748 5.57025ZM14.1769 5.69257C14.1848 5.68124 14.2042 5.6569 14.2836 5.55979L13.5097 4.92656C13.4452 5.0053 13.3927 5.06889 13.3568 5.1203L14.1769 5.69257ZM14.4993 6.47096C14.1399 6.40699 13.968 5.99193 14.1769 5.69256L13.3568 5.12031C12.7301 6.01841 13.2459 7.26358 14.3241 7.45548L14.4993 6.47096ZM14.6687 6.48937C14.5438 6.47688 14.5129 6.47338 14.4993 6.47096L14.3241 7.45548C14.3858 7.46647 14.4679 7.47428 14.5692 7.4844L14.6687 6.48937ZM14.8102 6.50557C14.7683 6.49916 14.7225 6.49475 14.6687 6.48937L14.5692 7.4844C14.6352 7.491 14.6493 7.49258 14.659 7.49406L14.8102 6.50557ZM16.0813 7.91009C16.0442 7.19976 15.5133 6.61316 14.8102 6.50557L14.659 7.49406C14.8933 7.52993 15.0703 7.72546 15.0826 7.96224L16.0813 7.91009ZM16.0833 8.0525C16.0833 7.99842 16.0835 7.95241 16.0813 7.91008L15.0826 7.96225C15.0832 7.97203 15.0833 7.9862 15.0833 8.0525H16.0833ZM16.0833 8.94757V8.0525H15.0833V8.94757H16.0833ZM16.0813 9.08979C16.0835 9.04752 16.0833 9.00157 16.0833 8.94757H15.0833C15.0833 9.01377 15.0832 9.02793 15.0826 9.0377L16.0813 9.08979ZM14.8101 10.4944C15.5133 10.3869 16.0442 9.80019 16.0813 9.08978L15.0826 9.03771C15.0703 9.27451 14.8933 9.47007 14.6589 9.50592L14.8101 10.4944ZM14.6688 10.5106C14.7225 10.5052 14.7683 10.5008 14.8101 10.4944L14.6589 9.50592C14.6492 9.5074 14.6352 9.50898 14.5693 9.51557L14.6688 10.5106ZM14.4996 10.529C14.5132 10.5266 14.5441 10.5231 14.6688 10.5106L14.5693 9.51557C14.4682 9.52568 14.3862 9.53347 14.3245 9.54443L14.4996 10.529ZM14.1772 11.3074C13.9682 11.0081 14.1402 10.5929 14.4996 10.529L14.3245 9.54443C13.2461 9.73621 12.7302 10.9817 13.3572 11.8798L14.1772 11.3074ZM14.2837 11.44C14.2044 11.343 14.1851 11.3187 14.1772 11.3074L13.3572 11.8798C13.393 11.9311 13.4455 11.9946 13.5098 12.0732L14.2837 11.44ZM14.3722 11.5513C14.3471 11.5172 14.3179 11.4818 14.2837 11.44L13.5098 12.0732C13.5517 12.1244 13.5605 12.1355 13.5663 12.1434L14.3722 11.5513ZM14.2778 13.4435C14.754 12.9149 14.7934 12.1246 14.3722 11.5513L13.5663 12.1434C13.7067 12.3345 13.6936 12.5979 13.5348 12.7741L14.2778 13.4435ZM14.1787 13.5454C14.2169 13.5072 14.2495 13.4749 14.2778 13.4435L13.5348 12.7741C13.5283 12.7814 13.5184 12.7915 13.4716 12.8383L14.1787 13.5454ZM13.5458 14.1783L14.1787 13.5454L13.4716 12.8383L12.8387 13.4712L13.5458 14.1783ZM13.4437 14.2776C13.4752 14.2492 13.5076 14.2166 13.5458 14.1783L12.8387 13.4712C12.7918 13.5181 12.7817 13.528 12.7744 13.5346L13.4437 14.2776ZM11.5517 14.3719C12.125 14.793 12.9152 14.7536 13.4437 14.2776L12.7744 13.5346C12.5982 13.6932 12.3348 13.7064 12.1437 13.566L11.5517 14.3719ZM11.4402 14.2834C11.4821 14.3176 11.5176 14.3468 11.5517 14.3719L12.1437 13.566C12.1358 13.5602 12.1248 13.5514 12.0735 13.5094L11.4402 14.2834ZM11.3074 14.1766C11.3188 14.1845 11.3431 14.2039 11.4402 14.2834L12.0735 13.5094C11.9947 13.445 11.9311 13.3924 11.8797 13.3565L11.3074 14.1766ZM10.529 14.499C10.593 14.1396 11.0081 13.9677 11.3074 14.1766L11.8797 13.3565C10.9816 12.7298 9.73642 13.2456 9.54452 14.3238L10.529 14.499ZM10.5106 14.6685C10.5231 14.5436 10.5266 14.5126 10.529 14.499L9.54452 14.3238C9.53354 14.3855 9.52573 14.4677 9.5156 14.569L10.5106 14.6685ZM10.5109 14.6662L10.5109 14.6661L9.51537 14.5713L9.51536 14.5714L10.5109 14.6662ZM10.4944 14.8103C10.5008 14.7684 10.5052 14.7225 10.5106 14.6686L9.51559 14.569C9.50898 14.6352 9.5074 14.6493 9.50591 14.659L10.4944 14.8103ZM9.09 16.0813C9.80024 16.0441 10.3868 15.5133 10.4944 14.8103L9.50591 14.659C9.47004 14.8933 9.27453 15.0703 9.03778 15.0826L9.09 16.0813ZM8.9474 16.0833C9.00154 16.0833 9.04762 16.0835 9.09 16.0813L9.03777 15.0826C9.02798 15.0832 9.01378 15.0833 8.9474 15.0833V16.0833ZM8.05249 16.0833H8.9474V15.0833H8.05249V16.0833ZM7.91009 16.0813C7.95241 16.0835 7.99842 16.0833 8.05249 16.0833V15.0833C7.9862 15.0833 7.97203 15.0832 7.96225 15.0826L7.91009 16.0813ZM6.50557 14.8102C6.61316 15.5133 7.19977 16.0442 7.9101 16.0813L7.96224 15.0826C7.72546 15.0703 7.52993 14.8933 7.49406 14.659L6.50557 14.8102ZM6.48937 14.6687C6.49475 14.7225 6.49916 14.7683 6.50557 14.8102L7.49406 14.659C7.49258 14.6493 7.491 14.6352 7.48441 14.5692L6.48937 14.6687ZM6.49075 14.681L6.49075 14.681L7.48303 14.557L7.48303 14.5569L6.49075 14.681ZM6.48913 14.6663L6.48914 14.6664L7.48464 14.5716L7.48463 14.5715L6.48913 14.6663ZM6.47096 14.4993C6.47338 14.5129 6.47688 14.5438 6.48936 14.6687L7.4844 14.5691C7.47428 14.4679 7.46647 14.3858 7.45548 14.324L6.47096 14.4993ZM5.69257 14.1769C5.99194 13.968 6.40699 14.1399 6.47096 14.4993L7.45548 14.324C7.26357 13.2459 6.01842 12.7301 5.12032 13.3568L5.69257 14.1769ZM5.55975 14.2837C5.6569 14.2042 5.68124 14.1848 5.69257 14.1769L5.12033 13.3568C5.0689 13.3927 5.00528 13.4453 4.92651 13.5097L5.55975 14.2837ZM5.56849 14.2763L5.56852 14.2763L4.91773 13.5171L4.9177 13.5171L5.56849 14.2763ZM5.44824 14.3723C5.48238 14.3472 5.51788 14.3179 5.55971 14.2837L4.92649 13.5097C4.87519 13.5517 4.86411 13.5605 4.85621 13.5663L5.44824 14.3723ZM3.5563 14.2779C4.08481 14.7539 4.87498 14.7934 5.44823 14.3723L4.85622 13.5663C4.66513 13.7067 4.40174 13.6936 4.22557 13.5349L3.5563 14.2779ZM3.45416 14.1786C3.4924 14.2169 3.52481 14.2495 3.55631 14.2779L4.22557 13.5349C4.21829 13.5283 4.20815 13.5184 4.16127 13.4715L3.45416 14.1786ZM2.82131 13.5458L3.45416 14.1786L4.16127 13.4715L3.52841 12.8387L2.82131 13.5458ZM2.82224 13.5467L2.82231 13.5468L3.52741 12.8377L3.52735 12.8376L2.82224 13.5467ZM2.72206 13.4437C2.75041 13.4751 2.78305 13.5075 2.82124 13.5457L3.52835 12.8386C3.48152 12.7918 3.47163 12.7817 3.46508 12.7744L2.72206 13.4437ZM2.6277 11.5517C2.2066 12.125 2.24601 12.9152 2.72206 13.4437L3.46508 12.7744C3.30639 12.5982 3.29325 12.3348 3.43362 12.1437L2.6277 11.5517ZM2.71624 11.4403C2.68203 11.4821 2.65278 11.5176 2.6277 11.5517L3.43363 12.1437C3.43942 12.1358 3.44826 12.1248 3.4902 12.0735L2.71624 11.4403ZM2.71414 11.4429L2.71408 11.4429L3.49236 12.0709L3.49241 12.0708L2.71414 11.4429ZM2.82306 11.3074C2.81516 11.3187 2.79577 11.3431 2.71629 11.4402L3.49025 12.0735C3.55469 11.9947 3.60725 11.9311 3.64313 11.8797L2.82306 11.3074ZM2.50064 10.529C2.86004 10.593 3.03197 11.008 2.82306 11.3074L3.64313 11.8797C4.26985 10.9816 3.75407 9.73639 2.67587 9.54449L2.50064 10.529ZM2.33125 10.5106C2.45612 10.5231 2.48705 10.5266 2.50064 10.529L2.67586 9.54449C2.61414 9.5335 2.532 9.5257 2.43076 9.51557L2.33125 10.5106ZM2.33548 10.511L2.33561 10.511L2.4264 9.51516L2.42627 9.51514L2.33548 10.511ZM2.18979 10.4944C2.23165 10.5008 2.2774 10.5052 2.33112 10.5106L2.43064 9.51556C2.36478 9.50898 2.35071 9.5074 2.34104 9.50592L2.18979 10.4944ZM0.918696 9.08987C0.955779 9.80021 1.48667 10.3868 2.18979 10.4944L2.34104 9.50592C2.10666 9.47006 1.9297 9.27452 1.91734 9.03773L0.918696 9.08987ZM0.916656 8.9475C0.916656 9.00156 0.916487 9.04755 0.918696 9.08987L1.91734 9.03774C1.91683 9.02795 1.91666 9.01377 1.91666 8.9475H0.916656ZM0.916657 8.05257L0.916656 8.9475H1.91666L1.91666 8.05257H0.916657ZM0.918702 7.91C0.916487 7.95237 0.916657 7.99843 0.916657 8.05257H1.91666C1.91666 7.9862 1.91683 7.97201 1.91734 7.96221L0.918702 7.91ZM2.18969 6.50558C1.48665 6.6132 0.955831 7.19974 0.918702 7.91L1.91734 7.96221C1.92971 7.72546 2.10665 7.52994 2.341 7.49407L2.18969 6.50558ZM2.33134 6.48936C2.27747 6.49475 2.23163 6.49916 2.18969 6.50558L2.341 7.49407C2.3507 7.49258 2.36481 7.491 2.43084 7.4844L2.33134 6.48936ZM2.50096 6.47093C2.48735 6.47335 2.45638 6.47686 2.33134 6.48936L2.43084 7.4844C2.53223 7.47426 2.61448 7.46644 2.67629 7.45544L2.50096 6.47093ZM2.82336 5.69258C3.03221 5.99194 2.86031 6.40693 2.50096 6.47093L2.67629 7.45544C3.75434 7.26345 4.27003 6.01846 3.64349 5.12041L2.82336 5.69258ZM2.71642 5.55957C2.79603 5.65686 2.81545 5.68124 2.82336 5.69258L3.64349 5.12041C3.60757 5.06892 3.55492 5.00521 3.49038 4.92633L2.71642 5.55957ZM2.71296 5.55529L2.71297 5.5553L3.49384 4.9306L3.49383 4.9306L2.71296 5.55529ZM2.74984 5.5965L2.74984 5.5965L3.45695 4.88939L3.45695 4.88939L2.74984 5.5965ZM2.62764 5.44783C2.65278 5.48205 2.6821 5.51762 2.71641 5.55956L3.49037 4.92632C3.44831 4.87491 3.43944 4.8638 3.43363 4.85589L2.62764 5.44783ZM2.722 3.55611C2.24607 4.08458 2.20666 4.87463 2.62765 5.44783L3.43363 4.85589C3.2933 4.66482 3.30643 4.40147 3.46508 4.22532L2.722 3.55611ZM2.82142 3.45379C2.78312 3.4921 2.75041 3.52457 2.722 3.55611L3.46508 4.22532C3.47165 4.21802 3.48157 4.20786 3.52853 4.1609L2.82142 3.45379ZM3.45419 2.82102L2.82142 3.45379L3.52853 4.1609L4.1613 3.52813L3.45419 2.82102ZM3.45741 2.81783L3.45739 2.81785L4.1581 3.5313L4.15812 3.53128L3.45741 2.81783ZM3.55634 2.72177C3.52485 2.75013 3.49244 2.78278 3.45421 2.821L4.16132 3.52811C4.20818 3.48125 4.21833 3.47134 4.2256 3.46479L3.55634 2.72177ZM5.44826 2.62741C4.87501 2.20631 4.08484 2.24572 3.55633 2.72177L4.2256 3.46479C4.40177 3.3061 4.66516 3.29297 4.85625 3.43333L5.44826 2.62741ZM5.55983 2.71605C5.51794 2.68178 5.48242 2.6525 5.44827 2.62741L4.85625 3.43333C4.86415 3.43913 4.87524 3.44799 4.92659 3.49001L5.55983 2.71605ZM5.56332 2.71893L5.56331 2.71892L4.92312 3.48714L4.92314 3.48715L5.56332 2.71893ZM5.69255 2.82276C5.68125 2.81487 5.65692 2.79548 5.55985 2.71606L4.92661 3.49002C5.00531 3.55441 5.06886 3.60693 5.1202 3.64277L5.69255 2.82276ZM6.471 2.50031C6.40706 2.85977 5.99193 3.03172 5.69255 2.82276L5.1202 3.64277C6.01835 4.26966 7.26374 3.7538 7.45555 2.67543L6.471 2.50031ZM6.48938 2.33116C6.47691 2.45586 6.47341 2.48674 6.471 2.50031L7.45555 2.67544C7.46651 2.6138 7.47431 2.53177 7.48442 2.43067L6.48938 2.33116ZM6.50555 2.18991C6.49915 2.23173 6.49475 2.27744 6.48938 2.33116L7.48442 2.43067C7.491 2.36481 7.49258 2.35074 7.49406 2.34107L6.50555 2.18991ZM7.91022 0.918691C7.19979 0.955725 6.61309 1.48668 6.50555 2.1899L7.49406 2.34107C7.5299 2.10667 7.72547 1.92968 7.96228 1.91733L7.91022 0.918691ZM8.05239 0.916656C7.9984 0.916656 7.95248 0.916488 7.91022 0.918691L7.96228 1.91733C7.97205 1.91683 7.98621 1.91666 8.05239 1.91666V0.916656ZM8.9475 0.916656H8.05239V1.91666H8.9475V0.916656ZM9.08987 0.918696C9.04756 0.916487 9.00156 0.916656 8.9475 0.916656V1.91666C9.01378 1.91666 9.02795 1.91683 9.03774 1.91734L9.08987 0.918696ZM10.4944 2.18979C10.3868 1.48666 9.80021 0.95578 9.08987 0.918696L9.03774 1.91734C9.27452 1.9297 9.47006 2.10666 9.50592 2.34104L10.4944 2.18979ZM10.5106 2.33119C10.5052 2.27743 10.5008 2.23166 10.4944 2.1898L9.50592 2.34103C9.5074 2.35071 9.50898 2.3648 9.51557 2.43071L10.5106 2.33119ZM10.8333 8.49999C10.8333 9.78865 9.78866 10.8333 8.49999 10.8333V11.8333C10.3409 11.8333 11.8333 10.3409 11.8333 8.49999H10.8333ZM8.49999 6.16666C9.78866 6.16666 10.8333 7.21133 10.8333 8.49999H11.8333C11.8333 6.65904 10.3409 5.16666 8.49999 5.16666V6.16666ZM6.16666 8.49999C6.16666 7.21133 7.21133 6.16666 8.49999 6.16666V5.16666C6.65904 5.16666 5.16666 6.65904 5.16666 8.49999H6.16666ZM8.49999 10.8333C7.21133 10.8333 6.16666 9.78865 6.16666 8.49999H5.16666C5.16666 10.3409 6.65904 11.8333 8.49999 11.8333V10.8333Z" fill="#024638"/>
</svg>
