<?xml version="1.0" encoding="utf-8"?>
<!-- Generator: Adobe Illustrator 19.1.0, SVG Export Plug-In . SVG Version: 6.00 Build 0)  -->
<svg version="1.1" id="Layer_1" xmlns="http://www.w3.org/2000/svg" xmlns:xlink="http://www.w3.org/1999/xlink" x="0px" y="0px"
	 viewBox="0 0 133.1 38.2" style="enable-background:new 0 0 133.1 38.2;" xml:space="preserve">
<style type="text/css">
	.st0{fill:#010101;}
	.st1{fill:#FFFFFF;}
</style>
<g>
	<polygon class="st0" points="15.6,23.6 19.6,24.2 19.6,20.3 15.6,20.3 	"/>
	<path class="st0" d="M73,13.7c0.4,0,0.7-0.1,0.9-0.4s0.4-0.6,0.4-1v-0.5L73.2,12c-0.4,0.1-0.6,0.1-0.8,0.3
		c-0.2,0.1-0.2,0.3-0.2,0.6c0,0.2,0.1,0.4,0.2,0.6C72.6,13.6,72.8,13.7,73,13.7z"/>
	<path class="st0" d="M44.7,12.8c0.5-0.5,0.7-1.1,0.7-1.9c0-1.6-0.9-2.5-2.6-2.5h-1v5h0.9C43.6,13.5,44.2,13.3,44.7,12.8z"/>
	<path class="st0" d="M69.5,10.6c-0.3-0.3-0.6-0.5-1.1-0.5c-0.5,0-0.8,0.2-1.1,0.5c-0.3,0.3-0.4,0.8-0.4,1.3c0,0.5,0.1,1,0.4,1.3
		c0.3,0.3,0.6,0.5,1.1,0.5c0.5,0,0.8-0.2,1.1-0.5c0.3-0.3,0.4-0.7,0.4-1.3l0,0C69.9,11.3,69.8,10.9,69.5,10.6z"/>
	<path class="st0" d="M92.7,10.6c-0.3-0.3-0.6-0.5-1.1-0.5c-0.5,0-0.8,0.2-1.1,0.5c-0.3,0.3-0.4,0.8-0.4,1.3c0,0.5,0.1,1,0.4,1.3
		c0.3,0.3,0.6,0.5,1.1,0.5c0.5,0,0.8-0.2,1.1-0.5c0.3-0.3,0.4-0.7,0.4-1.3h0C93.1,11.3,93,10.9,92.7,10.6z"/>
	<path class="st0" d="M67.1,21.8c-0.7,0-1.2,0.2-1.6,0.7c-0.4,0.5-0.6,1.2-0.6,2c0,0.8,0.2,1.4,0.5,1.9c0.4,0.5,0.8,0.7,1.5,0.7
		c0.6,0,1.1-0.2,1.5-0.7c0.4-0.4,0.6-1,0.6-1.7h0v-1c0-0.6-0.2-1-0.6-1.4C68.1,22,67.7,21.8,67.1,21.8z"/>
	<polygon class="st0" points="20.1,19.8 25.1,19.8 25.1,15.5 20.1,16.2 	"/>
	<polygon class="st0" points="15.6,19.8 19.6,19.8 19.6,16.2 15.6,16.8 	"/>
	<polygon class="st0" points="20.1,24.2 25.1,25 25.1,25 25.1,20.3 20.1,20.3 	"/>
	<path class="st0" d="M74.9,21.8c-0.7,0-1.2,0.2-1.7,0.7c-0.4,0.5-0.6,1.1-0.6,2c0,0.8,0.2,1.5,0.6,1.9c0.4,0.5,1,0.7,1.7,0.7
		c0.7,0,1.2-0.2,1.6-0.7c0.4-0.5,0.6-1.1,0.6-1.9l0,0c0-0.9-0.2-1.5-0.6-2C76.1,22,75.6,21.8,74.9,21.8z"/>
	<path class="st0" d="M112.6,22.5c-0.4-0.5-0.9-0.7-1.6-0.7c-0.7,0-1.2,0.2-1.7,0.7c-0.4,0.5-0.6,1.1-0.6,2c0,0.8,0.2,1.5,0.6,1.9
		c0.4,0.5,1,0.7,1.7,0.7c0.7,0,1.2-0.2,1.6-0.7c0.4-0.5,0.6-1.1,0.6-1.9h0C113.2,23.6,113,22.9,112.6,22.5z"/>
	<path class="st0" d="M122.7,21.8c-0.5,0-0.9,0.2-1.3,0.5c-0.4,0.4-0.6,0.8-0.7,1.4h3.7c0-0.6-0.2-1.1-0.5-1.5
		C123.6,22,123.2,21.8,122.7,21.8z"/>
	<path class="st0" d="M78.1,13.7c0.4,0,0.7-0.1,1-0.4c0.3-0.3,0.4-0.7,0.4-1.1h0v-0.7c0-0.4-0.1-0.7-0.4-0.9
		c-0.3-0.2-0.6-0.4-0.9-0.4c-0.4,0-0.8,0.2-1,0.5c-0.3,0.3-0.4,0.8-0.4,1.4c0,0.5,0.1,0.9,0.4,1.2C77.4,13.5,77.7,13.7,78.1,13.7z"
		/>
	<path class="st0" d="M133.1,3.8c0-2.1-1.7-3.8-3.8-3.8H3.8C1.7,0,0,1.7,0,3.8v30.5c0,2.1,1.7,3.8,3.8,3.8h125.5
		c2.1,0,3.8-1.7,3.8-3.8L133.1,3.8z M86.7,9.6h0.7v0.9h0c0.1-0.3,0.3-0.6,0.5-0.7c0.2-0.2,0.5-0.3,0.7-0.3c0.2,0,0.3,0,0.4,0.1v0.8
		c-0.1-0.1-0.3-0.1-0.6-0.1c-0.3,0-0.6,0.2-0.8,0.5c-0.2,0.3-0.3,0.7-0.3,1.2v2.3h-0.7V9.6z M83.3,9.6h0.8V8.9
		c0-0.5,0.1-0.8,0.4-1.1c0.3-0.3,0.6-0.4,1-0.4c0.2,0,0.4,0,0.5,0.1v0.7l0,0c-0.1-0.1-0.3-0.1-0.5-0.1c-0.5,0-0.8,0.3-0.8,1v0.7h1.1
		v0.6h-1.1v4h-0.7v-4h-0.8V9.6z M76.6,10.2c0.4-0.5,0.9-0.7,1.5-0.7c0.6,0,1.1,0.2,1.4,0.7h0V7.4h0.7v6.8h0h-0.7v-0.8h0
		c-0.3,0.6-0.9,0.9-1.6,0.9c-0.6,0-1-0.2-1.4-0.6c-0.3-0.4-0.5-1-0.5-1.7C76,11.3,76.2,10.7,76.6,10.2z M64.3,7.4h0.7v6.8h-0.7V7.4z
		 M47.6,10.2c0.4-0.4,1-0.7,1.7-0.7c0.7,0,1.2,0.2,1.6,0.6c0.4,0.4,0.6,1,0.6,1.7v0v0v0c0,0.7-0.2,1.3-0.6,1.8
		c-0.4,0.4-1,0.7-1.7,0.7c-0.7,0-1.2-0.2-1.6-0.6c-0.4-0.4-0.6-1-0.6-1.7C47,11.2,47.2,10.6,47.6,10.2z M41,7.8h1.8
		c2.2,0,3.4,1,3.4,3.1l0,0c0,0.7-0.1,1.2-0.4,1.7c-0.3,0.5-0.7,0.9-1.2,1.2c-0.5,0.3-1.1,0.4-1.8,0.4H41V7.8z M26.4,9.7v0.4
		l-0.6,0.1V9.7c0-1.5,0-2.2-1.7-1.9c0-0.2-0.1-0.5-0.1-0.7C26,6.8,26.4,7.4,26.4,9.7z M16.6,8.9c0-2.7,1.6-3.1,3.2-3.5
		c3-0.7,3.6,0.9,3.6,2.9v2.4l-0.7,0.1V8.3c0-1.1-0.2-2.8-2.8-2.2c-1.8,0.4-2.7,1-2.7,2.8v3h0l-0.7,0.1V8.9z M22.2,8.2
		c-1,0.4-1.3,0.7-1.3,2.1v0.9l-0.7,0.1v-1c0-2.1,0.8-2.4,1.9-2.8v0C22.1,7.8,22.1,8,22.2,8.2z M33.2,29.2l-3.6,1.3l-17.9-3.6V13.8
		l17.9-3.6l3.6,1.3V29.2z M50.7,27.8h-1.3l-2-7c-0.1-0.3-0.1-0.6-0.1-1h0c0,0.3-0.1,0.6-0.2,1l-2,7h-1.3L41,18.3h1.2l2,7.3
		c0.1,0.3,0.1,0.6,0.2,1h0c0-0.3,0.1-0.6,0.2-1l2.1-7.3h1.1l2,7.4c0.1,0.3,0.1,0.6,0.2,0.9h0c0-0.2,0.1-0.5,0.2-0.9l1.9-7.3h1.2h0
		L50.7,27.8z M55.3,27.8h-1.1V21h1.1V27.8z M55.5,18.8c0,0.2-0.1,0.4-0.2,0.5c-0.1,0.1-0.3,0.2-0.5,0.2c-0.2,0-0.4-0.1-0.5-0.2
		c-0.1-0.1-0.2-0.3-0.2-0.5c0-0.2,0.1-0.4,0.2-0.5c0.1-0.1,0.3-0.2,0.5-0.2c0.2,0,0.4,0.1,0.5,0.2C55.4,18.4,55.5,18.6,55.5,18.8
		L55.5,18.8z M56.2,14.2l-0.9-3.3c0-0.1-0.1-0.3-0.1-0.4h0c0,0.1,0,0.2-0.1,0.4l-1,3.3h-0.7L52,9.6h0.8l0.9,3.4
		c0,0.1,0.1,0.3,0.1,0.4h0c0-0.1,0-0.3,0.1-0.4l1-3.4h0.7l0.9,3.4c0,0.1,0.1,0.3,0.1,0.4h0c0-0.1,0-0.3,0.1-0.4l0.9-3.4h0.7l0,0
		L57,14.2H56.2z M62.6,27.8L62.6,27.8h-1.1V24c0-1.4-0.5-2.2-1.6-2.2c-0.5,0-1,0.2-1.3,0.6c-0.4,0.4-0.5,0.9-0.5,1.6v3.9H57V21h1.1
		v1.1h0c0.5-0.9,1.2-1.3,2.2-1.3c0.7,0,1.3,0.2,1.7,0.7c0.4,0.5,0.6,1.2,0.6,2.1V27.8z M62.9,14.2L62.9,14.2l-0.7,0v-2.6
		c0-1-0.4-1.5-1.1-1.5c-0.4,0-0.7,0.1-0.9,0.4c-0.2,0.3-0.4,0.6-0.4,1v2.6h-0.7V9.6h0.7v0.8h0c0.3-0.6,0.8-0.9,1.5-0.9
		c0.5,0,0.9,0.2,1.1,0.5c0.3,0.3,0.4,0.8,0.4,1.4V14.2z M70.1,27.8H69v-1.2h0c-0.5,0.9-1.3,1.3-2.3,1.3c-0.9,0-1.5-0.3-2-0.9
		s-0.8-1.4-0.8-2.5c0-1.1,0.3-2,0.8-2.7c0.6-0.7,1.3-1,2.3-1c0.9,0,1.6,0.4,2,1.1h0v-4.2h1.1V27.8z M70.7,11.9L70.7,11.9
		c0,0.7-0.2,1.3-0.6,1.8c-0.4,0.4-1,0.7-1.7,0.7c-0.7,0-1.2-0.2-1.6-0.6c-0.4-0.4-0.6-1-0.6-1.7c0-0.8,0.2-1.4,0.6-1.8
		c0.4-0.4,1-0.7,1.7-0.7c0.7,0,1.2,0.2,1.6,0.6C70.5,10.6,70.7,11.1,70.7,11.9L70.7,11.9L70.7,11.9z M72.9,11.5l1.4-0.2
		c0-0.8-0.3-1.2-0.9-1.2c-0.5,0-1,0.2-1.5,0.6V9.9c0.1-0.1,0.4-0.2,0.7-0.3c0.3-0.1,0.6-0.1,0.9-0.1c1.1,0,1.6,0.6,1.6,1.7v3h0h0
		h-0.7v-0.7h0c-0.3,0.6-0.8,0.8-1.4,0.8c-0.4,0-0.8-0.1-1.1-0.4c-0.3-0.2-0.4-0.6-0.4-1C71.4,12.1,71.9,11.6,72.9,11.5z M78.2,24.4
		L78.2,24.4c0,1.1-0.3,2-0.9,2.6c-0.6,0.7-1.4,1-2.5,1c-1,0-1.8-0.3-2.4-1c-0.6-0.6-0.9-1.5-0.9-2.5c0-1.1,0.3-2,0.9-2.7
		c0.6-0.7,1.5-1,2.5-1c1,0,1.8,0.3,2.4,0.9C77.9,22.4,78.2,23.3,78.2,24.4L78.2,24.4L78.2,24.4z M88,21L88,21l-2,6.8h-1.1L83.5,23
		c0-0.2-0.1-0.4-0.1-0.6h0c0,0.2-0.1,0.4-0.1,0.6l-1.5,4.9h-1.1l-2-6.8h1.1l1.4,5.1c0,0.2,0.1,0.4,0.1,0.6h0.1c0-0.2,0-0.4,0.1-0.6
		l1.6-5.1h1l1.4,5.1c0,0.2,0.1,0.4,0.1,0.6h0.1c0-0.2,0-0.4,0.1-0.6L87,21H88L88,21L88,21z M92.7,26c0,0.6-0.2,1.1-0.7,1.4
		c-0.5,0.4-1.1,0.6-1.8,0.6c-0.6,0-1.2-0.1-1.7-0.4v-1.2c0.5,0.4,1.1,0.7,1.8,0.7c0.9,0,1.3-0.3,1.3-1c0-0.3-0.1-0.5-0.3-0.6
		c-0.2-0.2-0.5-0.4-1.1-0.7c-0.6-0.3-1-0.5-1.3-0.8c-0.2-0.3-0.4-0.7-0.4-1.2c0-0.6,0.2-1,0.7-1.4c0.4-0.4,1-0.6,1.7-0.6
		c0.5,0,1,0.1,1.4,0.3v1.1c-0.4-0.3-1-0.5-1.5-0.5c-0.4,0-0.6,0.1-0.9,0.3c-0.2,0.2-0.3,0.4-0.3,0.7c0,0.3,0.1,0.5,0.3,0.7
		c0.2,0.2,0.5,0.4,1,0.6c0.6,0.3,1.1,0.6,1.4,0.9C92.5,25.2,92.7,25.6,92.7,26L92.7,26z M93.3,13.6c-0.4,0.4-1,0.7-1.7,0.7
		c-0.7,0-1.2-0.2-1.6-0.6c-0.4-0.4-0.6-1-0.6-1.7c0-0.8,0.2-1.4,0.6-1.8c0.4-0.4,1-0.7,1.7-0.7c0.7,0,1.2,0.2,1.6,0.6
		c0.4,0.4,0.6,1,0.6,1.7l0,0C93.9,12.6,93.7,13.2,93.3,13.6z M96,10.5c-0.2,0.3-0.3,0.6-0.3,1v2.6H95V9.6h0.7v0.7h0
		c0.3-0.6,0.8-0.8,1.4-0.8c0.3,0,0.6,0.1,0.8,0.3c0.2,0.2,0.4,0.4,0.5,0.7c0.3-0.6,0.8-1,1.5-1c1,0,1.5,0.6,1.5,1.9v2.8v0h-0.7v-2.6
		c0-0.5-0.1-0.9-0.2-1.1c-0.2-0.2-0.4-0.3-0.8-0.3c-0.3,0-0.6,0.1-0.8,0.4c-0.2,0.3-0.3,0.6-0.3,1v2.6h-0.7v-2.7
		c0-0.9-0.3-1.3-1-1.3C96.5,10.1,96.2,10.3,96,10.5z M101.5,27.3c-0.6,0.5-1.3,0.7-2.3,0.7c-0.4,0-0.8-0.1-1.2-0.2
		c-0.4-0.1-0.8-0.2-0.9-0.4v-1.3c0.3,0.2,0.6,0.4,1.1,0.6c0.4,0.2,0.8,0.2,1.2,0.2c1.2,0,1.8-0.5,1.8-1.4c0-0.4-0.1-0.7-0.4-1
		s-0.8-0.7-1.6-1.1c-0.8-0.4-1.3-0.9-1.6-1.3c-0.3-0.4-0.5-0.9-0.5-1.5c0-0.8,0.3-1.4,0.8-1.8c0.6-0.5,1.3-0.7,2.2-0.7
		c0.9,0,1.5,0.1,1.9,0.3v1.2c-0.5-0.4-1.1-0.6-1.9-0.6c-0.5,0-1,0.1-1.3,0.4c-0.3,0.3-0.5,0.6-0.5,1c0,0.3,0,0.6,0.1,0.8
		c0.1,0.2,0.3,0.4,0.5,0.6c0.2,0.2,0.6,0.4,1.2,0.8c0.8,0.5,1.4,0.9,1.8,1.3c0.3,0.4,0.5,0.9,0.5,1.4l0,0
		C102.3,26.2,102,26.9,101.5,27.3z M106.8,22h-1.7v3.8c0,0.5,0.1,0.8,0.2,1c0.2,0.2,0.4,0.3,0.8,0.3c0.3,0,0.5-0.1,0.7-0.2v0.9v0v0
		c-0.3,0.1-0.6,0.2-1,0.2c-1.2,0-1.8-0.7-1.8-2v-4h-1.2V21h1.2v-1.7l1.1-0.4v2h1.7V22z M113.4,27c-0.6,0.7-1.4,1-2.5,1
		c-1,0-1.8-0.3-2.4-1c-0.6-0.6-0.9-1.5-0.9-2.5c0-1.1,0.3-2,0.9-2.7c0.6-0.7,1.5-1,2.5-1c1,0,1.8,0.3,2.4,0.9
		c0.6,0.6,0.9,1.5,0.9,2.6C114.3,25.5,114,26.4,113.4,27z M119,22.1L119,22.1c-0.2-0.1-0.5-0.2-0.8-0.2c-0.5,0-0.9,0.2-1.2,0.7
		c-0.3,0.5-0.5,1-0.5,1.8v3.5h-1.1V21h1.1v1.4h0c0.1-0.5,0.4-0.8,0.7-1.1c0.3-0.3,0.7-0.4,1.1-0.4c0.3,0,0.5,0,0.6,0.1V22.1
		L119,22.1L119,22.1z M125.5,24.7L125.5,24.7L125.5,24.7h-4.8c0,0.8,0.2,1.4,0.6,1.8c0.4,0.4,0.9,0.6,1.6,0.6c0.8,0,1.5-0.2,2.1-0.7
		v1c-0.6,0.4-1.4,0.7-2.4,0.7c-1,0-1.7-0.3-2.3-0.9c-0.5-0.6-0.8-1.5-0.8-2.6c0-0.7,0.1-1.3,0.4-1.8c0.3-0.6,0.6-1,1.1-1.3
		c0.5-0.3,1-0.5,1.6-0.5c0.9,0,1.6,0.3,2.1,0.9c0.5,0.6,0.7,1.4,0.7,2.4V24.7z"/>
	<path class="st0" d="M49.2,13.7c0.5,0,0.8-0.2,1.1-0.5c0.3-0.3,0.4-0.7,0.4-1.3l0,0c0-0.6-0.1-1-0.4-1.3s-0.6-0.5-1.1-0.5
		c-0.5,0-0.8,0.2-1.1,0.5s-0.4,0.8-0.4,1.3c0,0.5,0.1,1,0.4,1.3C48.4,13.5,48.8,13.7,49.2,13.7z"/>
	<path class="st1" d="M11.7,13.8v13.1l17.9,3.6l3.6-1.3V11.6l-3.6-1.3L11.7,13.8z M19.6,24.2l-4-0.6v-3.3h4V24.2z M19.6,19.8h-4v-3
		l4-0.6V19.8z M25.1,25L25.1,25l-5-0.7v-3.9h5V25z M25.1,19.8h-5v-3.6l5-0.7V19.8z"/>
	<path class="st1" d="M17.3,11.9v-3c0-1.9,0.9-2.4,2.7-2.8c2.7-0.6,2.8,1.1,2.8,2.2v2.5l0.7-0.1V8.4c0-2.1-0.7-3.6-3.6-2.9
		c-1.6,0.4-3.2,0.8-3.2,3.5v3.2L17.3,11.9L17.3,11.9z"/>
	<path class="st1" d="M25.7,9.7v0.5l0.6-0.1V9.7c0-2.3-0.4-2.9-2.4-2.6c0,0.2,0.1,0.4,0.1,0.7C25.8,7.5,25.7,8.2,25.7,9.7z"/>
	<path class="st1" d="M20.2,10.4v1l0.7-0.1v-0.9c0-1.4,0.3-1.7,1.3-2.1c0-0.3,0-0.5-0.1-0.7v0C21,8,20.2,8.3,20.2,10.4z"/>
	<path class="st1" d="M84.1,14.2h0.7v-4h1.1V9.6h-1.1V8.9c0-0.6,0.3-1,0.8-1c0.2,0,0.3,0,0.5,0.1l0,0V7.4c-0.1-0.1-0.3-0.1-0.5-0.1
		c-0.4,0-0.8,0.1-1,0.4c-0.3,0.3-0.4,0.7-0.4,1.1v0.7h-0.8v0.6h0.8V14.2z"/>
	<path class="st1" d="M87.4,11.9c0-0.5,0.1-0.9,0.3-1.2c0.2-0.3,0.5-0.5,0.8-0.5c0.2,0,0.4,0,0.6,0.1V9.6c-0.1,0-0.2-0.1-0.4-0.1
		c-0.3,0-0.5,0.1-0.7,0.3c-0.2,0.2-0.4,0.4-0.5,0.7h0V9.6h-0.7v4.6h0.7V11.9z"/>
	<path class="st1" d="M49.2,14.3c0.7,0,1.2-0.2,1.7-0.7c0.4-0.4,0.6-1,0.6-1.8c0-0.7-0.2-1.3-0.6-1.7c-0.4-0.4-0.9-0.6-1.6-0.6
		c-0.7,0-1.3,0.2-1.7,0.7c-0.4,0.4-0.6,1-0.6,1.8c0,0.7,0.2,1.3,0.6,1.7C48,14.1,48.5,14.3,49.2,14.3z M48.1,10.6
		c0.3-0.3,0.6-0.5,1.1-0.5c0.5,0,0.8,0.2,1.1,0.5s0.4,0.7,0.4,1.3l0,0c0,0.6-0.1,1-0.4,1.3c-0.3,0.3-0.6,0.5-1.1,0.5
		c-0.5,0-0.8-0.2-1.1-0.5c-0.3-0.3-0.4-0.7-0.4-1.3C47.7,11.4,47.9,10.9,48.1,10.6z"/>
	<rect x="64.3" y="7.4" class="st1" width="0.7" height="6.8"/>
	<path class="st1" d="M77.9,14.3c0.7,0,1.2-0.3,1.6-0.9h0v0.8h0.7h0V7.4h-0.7v2.8h0c-0.3-0.5-0.7-0.7-1.4-0.7
		c-0.6,0-1.1,0.2-1.5,0.7C76.2,10.7,76,11.3,76,12c0,0.7,0.2,1.2,0.5,1.7C76.9,14.1,77.3,14.3,77.9,14.3z M77.2,10.6
		c0.3-0.3,0.6-0.5,1-0.5c0.4,0,0.7,0.1,0.9,0.4c0.3,0.3,0.4,0.6,0.4,0.9v0.7h0c0,0.5-0.1,0.8-0.4,1.1c-0.3,0.3-0.6,0.4-1,0.4
		c-0.4,0-0.7-0.2-1-0.5c-0.2-0.3-0.4-0.7-0.4-1.2C76.8,11.4,76.9,10.9,77.2,10.6z"/>
	<polygon class="st1" points="51.5,11.9 51.5,11.9 51.5,11.9 	"/>
	<path class="st1" d="M58.3,9.6h-0.7l-0.9,3.4c0,0.1-0.1,0.3-0.1,0.4h0c0-0.2,0-0.3-0.1-0.4l-0.9-3.4h-0.7l-1,3.4
		c-0.1,0.2-0.1,0.3-0.1,0.4h0c0-0.2,0-0.3-0.1-0.4l-0.9-3.4H52l1.4,4.6h0.7l1-3.3c0.1-0.2,0.1-0.3,0.1-0.4h0c0,0.2,0,0.3,0.1,0.4
		l0.9,3.3H57L58.3,9.6L58.3,9.6z"/>
	<path class="st1" d="M44.5,13.8c0.5-0.3,0.9-0.7,1.2-1.2c0.3-0.5,0.4-1.1,0.4-1.7l0,0c0-2.1-1.1-3.1-3.4-3.1H41v6.4h1.7
		C43.4,14.2,44,14.1,44.5,13.8z M41.8,8.5h1c1.7,0,2.6,0.8,2.6,2.5c0,0.8-0.2,1.5-0.7,1.9c-0.5,0.5-1.1,0.7-2,0.7h-0.9V8.5z"/>
	<path class="st1" d="M93.3,10.1c-0.4-0.4-0.9-0.6-1.6-0.6c-0.7,0-1.3,0.2-1.7,0.7c-0.4,0.4-0.6,1-0.6,1.8c0,0.7,0.2,1.3,0.6,1.7
		c0.4,0.4,0.9,0.6,1.6,0.6c0.7,0,1.2-0.2,1.7-0.7c0.4-0.4,0.6-1,0.6-1.8l0,0C93.9,11.1,93.7,10.6,93.3,10.1z M92.7,13.2
		c-0.3,0.3-0.6,0.5-1.1,0.5c-0.5,0-0.8-0.2-1.1-0.5c-0.3-0.3-0.4-0.7-0.4-1.3c0-0.6,0.1-1,0.4-1.3c0.3-0.3,0.6-0.5,1.1-0.5
		c0.5,0,0.8,0.2,1.1,0.5c0.3,0.3,0.4,0.7,0.4,1.3h0C93.1,12.5,93,12.9,92.7,13.2z"/>
	<path class="st1" d="M68.5,9.5c-0.7,0-1.3,0.2-1.7,0.7c-0.4,0.4-0.6,1-0.6,1.8c0,0.7,0.2,1.3,0.6,1.7c0.4,0.4,0.9,0.6,1.6,0.6
		c0.7,0,1.2-0.2,1.7-0.7c0.4-0.4,0.6-1,0.6-1.8c0-0.7-0.2-1.3-0.6-1.7C69.7,9.7,69.2,9.5,68.5,9.5z M69.5,13.2
		c-0.3,0.3-0.6,0.5-1.1,0.5c-0.5,0-0.8-0.2-1.1-0.5c-0.3-0.3-0.4-0.7-0.4-1.3c0-0.6,0.1-1,0.4-1.3c0.3-0.3,0.6-0.5,1.1-0.5
		c0.5,0,0.8,0.2,1.1,0.5c0.3,0.3,0.4,0.7,0.4,1.3l0,0C69.9,12.5,69.8,12.9,69.5,13.2z"/>
	<path class="st1" d="M72.9,14.3c0.6,0,1.1-0.3,1.4-0.8h0v0.7H75v-3c0-1.1-0.5-1.7-1.6-1.7c-0.3,0-0.5,0-0.9,0.1
		c-0.3,0.1-0.6,0.2-0.7,0.3v0.8c0.4-0.4,0.9-0.6,1.5-0.6c0.6,0,0.9,0.4,0.9,1.2l-1.4,0.2c-1,0.1-1.5,0.6-1.5,1.5
		c0,0.4,0.1,0.7,0.4,1C72.1,14.2,72.4,14.3,72.9,14.3z M72.4,12.3c0.2-0.1,0.4-0.2,0.8-0.3l1.1-0.2v0.5c0,0.4-0.1,0.7-0.4,1
		s-0.5,0.4-0.9,0.4c-0.3,0-0.5-0.1-0.6-0.2c-0.2-0.1-0.2-0.3-0.2-0.6C72.2,12.6,72.2,12.4,72.4,12.3z"/>
	<path class="st1" d="M61.4,9.5c-0.7,0-1.2,0.3-1.5,0.9h0V9.6h-0.7v4.6h0.7v-2.6c0-0.4,0.1-0.8,0.4-1c0.2-0.3,0.5-0.4,0.9-0.4
		c0.7,0,1.1,0.5,1.1,1.5v2.6h0.7l0,0v-2.8c0-0.6-0.1-1.1-0.4-1.4C62.3,9.7,61.9,9.5,61.4,9.5z"/>
	<path class="st1" d="M97.9,11.5v2.7h0.7v-2.6c0-0.4,0.1-0.7,0.3-1c0.2-0.3,0.5-0.4,0.8-0.4c0.4,0,0.6,0.1,0.8,0.3
		c0.2,0.2,0.2,0.6,0.2,1.1v2.6h0.7v0v-2.8c0-1.2-0.5-1.9-1.5-1.9c-0.7,0-1.2,0.3-1.5,1c-0.1-0.3-0.3-0.5-0.5-0.7
		c-0.2-0.2-0.5-0.3-0.8-0.3c-0.6,0-1.1,0.3-1.4,0.8h0V9.6H95v4.6h0.7v-2.6c0-0.4,0.1-0.8,0.3-1c0.2-0.3,0.5-0.4,0.8-0.4
		C97.5,10.1,97.9,10.6,97.9,11.5z"/>
	<polygon class="st1" points="70.7,11.9 70.7,11.9 70.7,11.9 	"/>
	<path class="st1" d="M105.1,19l-1.1,0.4V21h-1.2V22h1.2v4c0,1.3,0.6,2,1.8,2c0.4,0,0.8-0.1,1-0.2v-0.9c-0.2,0.1-0.4,0.2-0.7,0.2
		c-0.4,0-0.6-0.1-0.8-0.3c-0.2-0.2-0.2-0.5-0.2-1V22h1.7V21h-1.7V19z"/>
	<path class="st1" d="M101.8,24c-0.3-0.4-0.9-0.9-1.8-1.3c-0.6-0.3-1-0.6-1.2-0.8c-0.2-0.2-0.4-0.4-0.5-0.6
		c-0.1-0.2-0.1-0.4-0.1-0.8c0-0.4,0.2-0.8,0.5-1c0.3-0.3,0.8-0.4,1.3-0.4c0.8,0,1.4,0.2,1.9,0.6v-1.2c-0.4-0.2-1-0.3-1.9-0.3
		c-0.9,0-1.6,0.2-2.2,0.7c-0.6,0.5-0.8,1.1-0.8,1.8c0,0.6,0.2,1.1,0.5,1.5c0.3,0.4,0.9,0.8,1.6,1.3c0.8,0.5,1.3,0.8,1.6,1.1
		s0.4,0.6,0.4,1c0,1-0.6,1.4-1.8,1.4c-0.4,0-0.8-0.1-1.2-0.2c-0.4-0.2-0.8-0.4-1.1-0.6v1.3c0.2,0.1,0.5,0.3,0.9,0.4
		c0.4,0.1,0.8,0.2,1.2,0.2c1,0,1.7-0.2,2.3-0.7c0.6-0.5,0.8-1.1,0.8-1.9l0,0C102.3,24.9,102.2,24.4,101.8,24z"/>
	<path class="st1" d="M111.1,20.9c-1.1,0-1.9,0.3-2.5,1c-0.6,0.7-0.9,1.5-0.9,2.7c0,1,0.3,1.9,0.9,2.5c0.6,0.6,1.4,1,2.4,1
		c1,0,1.8-0.3,2.5-1c0.6-0.7,0.9-1.5,0.9-2.6c0-1.1-0.3-2-0.9-2.6C112.9,21.2,112.1,20.9,111.1,20.9z M112.6,26.4
		c-0.4,0.5-0.9,0.7-1.6,0.7c-0.7,0-1.2-0.2-1.7-0.7c-0.4-0.5-0.6-1.1-0.6-1.9c0-0.9,0.2-1.5,0.6-2c0.4-0.5,1-0.7,1.7-0.7
		c0.7,0,1.2,0.2,1.6,0.7c0.4,0.5,0.6,1.1,0.6,2h0C113.2,25.3,113,25.9,112.6,26.4z"/>
	<path class="st1" d="M122.7,20.9c-0.6,0-1.1,0.2-1.6,0.5c-0.5,0.3-0.9,0.7-1.1,1.3c-0.3,0.6-0.4,1.2-0.4,1.8c0,1.1,0.3,2,0.8,2.6
		c0.5,0.6,1.3,0.9,2.3,0.9c1,0,1.8-0.2,2.4-0.7v-1c-0.6,0.5-1.3,0.7-2.1,0.7c-0.7,0-1.2-0.2-1.6-0.6c-0.4-0.4-0.6-1-0.6-1.8h4.8
		v-0.6c0-1-0.2-1.8-0.7-2.4C124.3,21.1,123.6,20.9,122.7,20.9z M120.7,23.8c0.1-0.6,0.3-1.1,0.7-1.4c0.4-0.4,0.8-0.5,1.3-0.5
		c0.5,0,0.9,0.2,1.2,0.5c0.3,0.3,0.4,0.8,0.5,1.5H120.7z"/>
	<path class="st1" d="M90.9,24c-0.5-0.2-0.9-0.4-1-0.6c-0.2-0.2-0.3-0.4-0.3-0.7c0-0.3,0.1-0.5,0.3-0.7c0.2-0.2,0.5-0.3,0.9-0.3
		c0.6,0,1.1,0.2,1.5,0.5v-1.1c-0.4-0.2-0.9-0.3-1.4-0.3c-0.7,0-1.3,0.2-1.7,0.6c-0.5,0.4-0.7,0.8-0.7,1.4c0,0.5,0.1,0.9,0.4,1.2
		c0.2,0.3,0.7,0.6,1.3,0.8c0.6,0.3,1,0.5,1.1,0.7c0.2,0.2,0.3,0.4,0.3,0.6c0,0.6-0.4,1-1.3,1c-0.6,0-1.2-0.2-1.8-0.7v1.2
		c0.5,0.3,1,0.4,1.7,0.4c0.7,0,1.4-0.2,1.8-0.6c0.5-0.4,0.7-0.8,0.7-1.4v0c0-0.5-0.1-0.8-0.4-1.1C92,24.6,91.6,24.3,90.9,24z"/>
	<path class="st1" d="M118.3,20.9c-0.4,0-0.8,0.1-1.1,0.4c-0.3,0.3-0.5,0.6-0.7,1.1h0V21h-1.1v6.8h1.1v-3.5c0-0.7,0.1-1.3,0.5-1.8
		c0.3-0.5,0.7-0.7,1.2-0.7c0.4,0,0.6,0.1,0.8,0.2V21C118.8,20.9,118.6,20.9,118.3,20.9z"/>
	<path class="st1" d="M54.8,18.1c-0.2,0-0.4,0.1-0.5,0.2c-0.1,0.1-0.2,0.3-0.2,0.5c0,0.2,0.1,0.4,0.2,0.5c0.1,0.1,0.3,0.2,0.5,0.2
		c0.2,0,0.4-0.1,0.5-0.2c0.1-0.1,0.2-0.3,0.2-0.5v0c0-0.2-0.1-0.4-0.2-0.5C55.2,18.2,55,18.1,54.8,18.1z"/>
	<polygon class="st1" points="119,22.1 119,22.1 119,22.1 	"/>
	<path class="st1" d="M52.2,18.3l-1.9,7.3c-0.1,0.4-0.2,0.7-0.2,0.9h0c0-0.3-0.1-0.6-0.2-0.9l-2-7.4h-1.1l-2.1,7.3
		c-0.1,0.4-0.2,0.7-0.2,1h0c0-0.3-0.1-0.6-0.2-1l-2-7.3H41l2.8,9.5h1.3l2-7c0.1-0.3,0.1-0.6,0.2-1h0c0,0.4,0.1,0.7,0.1,1l2,7h1.3
		l2.7-9.5h0H52.2z"/>
	<path class="st1" d="M69,22L69,22c-0.5-0.7-1.1-1.1-2.1-1.1c-0.9,0-1.7,0.3-2.3,1c-0.6,0.7-0.8,1.6-0.8,2.7c0,1,0.3,1.9,0.8,2.5
		s1.2,0.9,2,0.9c1,0,1.8-0.4,2.3-1.3h0v1.2h1.1V17.8H69V22z M69,24.8L69,24.8c0,0.7-0.2,1.2-0.6,1.7c-0.4,0.4-0.9,0.7-1.5,0.7
		c-0.6,0-1.1-0.2-1.5-0.7c-0.4-0.5-0.5-1.1-0.5-1.9c0-0.9,0.2-1.5,0.6-2c0.4-0.5,0.9-0.7,1.6-0.7c0.5,0,1,0.2,1.4,0.6
		c0.4,0.4,0.6,0.8,0.6,1.4V24.8z"/>
	<path class="st1" d="M60.3,20.9c-1,0-1.7,0.4-2.2,1.3h0V21H57v6.8h1.1V24c0-0.6,0.2-1.1,0.5-1.6c0.4-0.4,0.8-0.6,1.3-0.6
		c1,0,1.6,0.7,1.6,2.2v3.9h1.1h0v-4.2c0-0.9-0.2-1.6-0.6-2.1C61.6,21.1,61.1,20.9,60.3,20.9z"/>
	<rect x="54.2" y="21" class="st1" width="1.1" height="6.8"/>
	<path class="st1" d="M74.9,20.9c-1.1,0-1.9,0.3-2.5,1c-0.6,0.7-0.9,1.5-0.9,2.7c0,1,0.3,1.9,0.9,2.5c0.6,0.6,1.4,1,2.4,1
		c1,0,1.8-0.3,2.5-1c0.6-0.7,0.9-1.5,0.9-2.6c0-1.1-0.3-2-0.9-2.6C76.7,21.2,75.9,20.9,74.9,20.9z M77,24.4c0,0.8-0.2,1.5-0.6,1.9
		c-0.4,0.5-0.9,0.7-1.6,0.7c-0.7,0-1.2-0.2-1.7-0.7c-0.4-0.5-0.6-1.1-0.6-1.9c0-0.9,0.2-1.5,0.6-2c0.4-0.5,1-0.7,1.7-0.7
		c0.7,0,1.2,0.2,1.6,0.7C76.8,22.9,77,23.6,77,24.4L77,24.4z"/>
	<polygon class="st1" points="88,21 88,21 88,21 	"/>
	<path class="st1" d="M85.6,26.2c-0.1,0.2-0.1,0.4-0.1,0.6h-0.1c0-0.2,0-0.4-0.1-0.6L83.9,21h-1l-1.6,5.1c-0.1,0.2-0.1,0.5-0.1,0.6
		h-0.1c0-0.2,0-0.4-0.1-0.6L79.7,21h-1.1l2,6.8h1.1l1.5-4.9c0.1-0.3,0.1-0.5,0.1-0.6h0c0,0.2,0.1,0.5,0.1,0.6l1.4,4.9H86l2-6.8H87
		L85.6,26.2z"/>
	<polygon class="st1" points="78.2,24.4 78.2,24.4 78.2,24.4 	"/>
</g>
</svg>
