<svg width="17" height="17" viewBox="0 0 17 17" fill="none" xmlns="http://www.w3.org/2000/svg">
<path d="M1.41699 6.37499C1.41699 5.5993 1.41699 5.21146 1.52313 4.89878C1.723 4.31 2.18533 3.84766 2.77411 3.6478C3.08679 3.54166 3.47464 3.54166 4.25032 3.54166H12.7503C13.526 3.54166 13.9139 3.54166 14.2265 3.6478C14.8153 3.84766 15.2777 4.31 15.4775 4.89878C15.5837 5.21146 15.5837 5.5993 15.5837 6.37499C15.5837 6.56891 15.5837 6.66587 15.5571 6.74404C15.5072 6.89124 15.3916 7.00682 15.2444 7.05679C15.1662 7.08332 15.0692 7.08332 14.8753 7.08332H2.12533C1.9314 7.08332 1.83444 7.08332 1.75627 7.05679C1.60908 7.00682 1.49349 6.89124 1.44353 6.74404C1.41699 6.66587 1.41699 6.56891 1.41699 6.37499Z" fill="white"/>
<path fill-rule="evenodd" clip-rule="evenodd" d="M1.41699 11.5833C1.41699 13.469 1.41699 14.4118 2.00278 14.9975C2.58857 15.5833 3.53137 15.5833 5.41699 15.5833H11.5837C13.4693 15.5833 14.4121 15.5833 14.9979 14.9975C15.5837 14.4118 15.5837 13.469 15.5837 11.5833V9.5C15.5837 9.0286 15.5837 8.79289 15.4372 8.64645C15.2908 8.5 15.0551 8.5 14.5837 8.5H2.41699C1.94559 8.5 1.70989 8.5 1.56344 8.64645C1.41699 8.79289 1.41699 9.0286 1.41699 9.5V11.5833ZM4.95866 10.625C4.95866 10.4311 4.95866 10.3341 4.98519 10.2559C5.03516 10.1088 5.15074 9.99317 5.29794 9.9432C5.37611 9.91667 5.47307 9.91667 5.66699 9.91667H7.08366C7.27758 9.91667 7.37454 9.91667 7.45271 9.9432C7.59991 9.99317 7.71549 10.1088 7.76546 10.2559C7.79199 10.3341 7.79199 10.4311 7.79199 10.625C7.79199 10.8189 7.79199 10.9159 7.76546 10.9941C7.71549 11.1412 7.59991 11.2568 7.45271 11.3068C7.37454 11.3333 7.27758 11.3333 7.08366 11.3333H5.66699C5.47307 11.3333 5.37611 11.3333 5.29794 11.3068C5.15074 11.2568 5.03516 11.1412 4.98519 10.9941C4.95866 10.9159 4.95866 10.8189 4.95866 10.625ZM4.98519 13.0893C4.95866 13.1674 4.95866 13.2644 4.95866 13.4583C4.95866 13.6523 4.95866 13.7492 4.98519 13.8274C5.03516 13.9746 5.15074 14.0902 5.29794 14.1401C5.37611 14.1667 5.47307 14.1667 5.66699 14.1667H7.08366C7.27758 14.1667 7.37454 14.1667 7.45271 14.1401C7.59991 14.0902 7.71549 13.9746 7.76546 13.8274C7.79199 13.7492 7.79199 13.6523 7.79199 13.4583C7.79199 13.2644 7.79199 13.1674 7.76546 13.0893C7.71549 12.9421 7.59991 12.8265 7.45271 12.7765C7.37454 12.75 7.27758 12.75 7.08366 12.75H5.66699C5.47307 12.75 5.37611 12.75 5.29794 12.7765C5.15074 12.8265 5.03516 12.9421 4.98519 13.0893ZM9.20866 10.625C9.20866 10.4311 9.20866 10.3341 9.23519 10.2559C9.28516 10.1088 9.40074 9.99317 9.54794 9.9432C9.62611 9.91667 9.72307 9.91667 9.91699 9.91667H11.3337C11.5276 9.91667 11.6245 9.91667 11.7027 9.9432C11.8499 9.99317 11.9655 10.1088 12.0155 10.2559C12.042 10.3341 12.042 10.4311 12.042 10.625C12.042 10.8189 12.042 10.9159 12.0155 10.9941C11.9655 11.1412 11.8499 11.2568 11.7027 11.3068C11.6245 11.3333 11.5276 11.3333 11.3337 11.3333H9.91699C9.72307 11.3333 9.62611 11.3333 9.54794 11.3068C9.40074 11.2568 9.28516 11.1412 9.23519 10.9941C9.20866 10.9159 9.20866 10.8189 9.20866 10.625ZM9.23519 13.0893C9.20866 13.1674 9.20866 13.2644 9.20866 13.4583C9.20866 13.6523 9.20866 13.7492 9.23519 13.8274C9.28516 13.9746 9.40074 14.0902 9.54794 14.1401C9.62611 14.1667 9.72307 14.1667 9.91699 14.1667H11.3337C11.5276 14.1667 11.6245 14.1667 11.7027 14.1401C11.8499 14.0902 11.9655 13.9746 12.0155 13.8274C12.042 13.7492 12.042 13.6523 12.042 13.4583C12.042 13.2644 12.042 13.1674 12.0155 13.0893C11.9655 12.9421 11.8499 12.8265 11.7027 12.7765C11.6245 12.75 11.5276 12.75 11.3337 12.75H9.91699C9.72307 12.75 9.62611 12.75 9.54794 12.7765C9.40074 12.8265 9.28516 12.9421 9.23519 13.0893Z" fill="white"/>
<path d="M4.95801 2.125L4.95801 4.25" stroke="white" stroke-width="2" stroke-linecap="round"/>
<path d="M12.042 2.125L12.042 4.25" stroke="white" stroke-width="2" stroke-linecap="round"/>
</svg>
