<svg width="17" height="17" viewBox="0 0 17 17" fill="none" xmlns="http://www.w3.org/2000/svg">
<path d="M10.3316 2.53999L10.6851 2.18644L10.6851 2.18644L10.3316 2.53999ZM13.0434 5.2518L12.6898 5.60535L13.0434 5.2518ZM13.4044 5.68906L13.8663 5.49772V5.49772L13.4044 5.68906ZM13.0434 14.4601L12.6898 14.1066L13.0434 14.4601ZM6.37499 2.62506H9.32985V1.62506H6.37499V2.62506ZM10.625 14.3751H6.37499V15.3751H10.625V14.3751ZM4.04166 12.0417V4.95839H3.04166V12.0417H4.04166ZM12.9583 6.25353V12.0417H13.9583V6.25353H12.9583ZM9.97804 2.89355L12.6898 5.60535L13.3969 4.89824L10.6851 2.18644L9.97804 2.89355ZM13.9583 6.25353C13.9583 6.0048 13.9672 5.74114 13.8663 5.49772L12.9425 5.8804C12.943 5.88164 12.9443 5.88491 12.9461 5.89342C12.9481 5.90306 12.9508 5.92002 12.953 5.94944C12.958 6.01482 12.9583 6.10144 12.9583 6.25353H13.9583ZM12.6898 5.60535C12.7974 5.71289 12.8584 5.77437 12.9011 5.82412C12.9203 5.8465 12.9304 5.8604 12.9358 5.86864C12.9406 5.87591 12.942 5.87917 12.9425 5.8804L13.8663 5.49772C13.7655 5.2543 13.5728 5.07412 13.3969 4.89824L12.6898 5.60535ZM6.37499 14.3751C5.69303 14.3751 5.23186 14.374 4.88715 14.3277C4.55681 14.2832 4.40922 14.2057 4.31014 14.1066L3.60304 14.8137C3.91889 15.1295 4.31268 15.2594 4.7539 15.3187C5.18074 15.3761 5.7213 15.3751 6.37499 15.3751V14.3751ZM3.04166 12.0417C3.04166 12.6954 3.04059 13.236 3.09798 13.6628C3.1573 14.104 3.28718 14.4978 3.60304 14.8137L4.31014 14.1066C4.21106 14.0075 4.13348 13.8599 4.08906 13.5296C4.04272 13.1849 4.04166 12.7237 4.04166 12.0417H3.04166ZM10.625 15.3751C11.2787 15.3751 11.8192 15.3761 12.2461 15.3187C12.6873 15.2594 13.0811 15.1295 13.3969 14.8137L12.6898 14.1066C12.5908 14.2057 12.4432 14.2832 12.1128 14.3277C11.7681 14.374 11.3069 14.3751 10.625 14.3751V15.3751ZM12.9583 12.0417C12.9583 12.7237 12.9573 13.1849 12.9109 13.5296C12.8665 13.8599 12.7889 14.0075 12.6898 14.1066L13.3969 14.8137C13.7128 14.4978 13.8427 14.104 13.902 13.6628C13.9594 13.236 13.9583 12.6954 13.9583 12.0417H12.9583ZM9.32985 2.62506C9.48194 2.62506 9.56856 2.62539 9.63395 2.63036C9.66336 2.6326 9.68032 2.63529 9.68996 2.6373C9.69847 2.63907 9.70175 2.64041 9.70298 2.64092L10.0857 1.71704C9.84224 1.61621 9.57859 1.62506 9.32985 1.62506V2.62506ZM10.6851 2.18644C10.5093 2.01056 10.3291 1.81787 10.0857 1.71704L9.70298 2.64092C9.70422 2.64143 9.70747 2.6428 9.71475 2.64757C9.72298 2.65296 9.73688 2.66305 9.75926 2.68227C9.80901 2.72499 9.87049 2.786 9.97804 2.89355L10.6851 2.18644ZM6.37499 1.62506C5.7213 1.62506 5.18074 1.624 4.7539 1.68139C4.31268 1.74071 3.91889 1.87059 3.60304 2.18644L4.31014 2.89355C4.40922 2.79446 4.55681 2.71688 4.88715 2.67247C5.23186 2.62612 5.69303 2.62506 6.37499 2.62506V1.62506ZM4.04166 4.95839C4.04166 4.27644 4.04272 3.81527 4.08906 3.47055C4.13348 3.14022 4.21106 2.99263 4.31014 2.89355L3.60304 2.18644C3.28718 2.50229 3.1573 2.89608 3.09798 3.3373C3.04059 3.76414 3.04166 4.30471 3.04166 4.95839H4.04166Z" fill="#024638"/>
<path d="M6.375 9.20839L10.625 9.20839" stroke="#024638" stroke-linecap="round"/>
<path d="M6.375 12.0417L9.20833 12.0417" stroke="#024638" stroke-linecap="round"/>
<path d="M9.41581 6.16759L9.76936 5.81404L9.41581 6.16759ZM8.70834 2.12506V4.95839H9.70834V2.12506H8.70834ZM10.625 6.87506H13.4583V5.87506H10.625V6.87506ZM8.70834 4.95839C8.70834 5.27817 8.70728 5.5683 8.73874 5.80225C8.77212 6.05059 8.85014 6.30903 9.06226 6.52115L9.76936 5.81404C9.7678 5.81248 9.76431 5.80951 9.75826 5.79481C9.75057 5.77612 9.73924 5.73905 9.72982 5.669C9.70941 5.51718 9.70834 5.30644 9.70834 4.95839H8.70834ZM10.625 5.87506C10.277 5.87506 10.0662 5.874 9.9144 5.85359C9.84435 5.84417 9.80729 5.83283 9.78859 5.82514C9.7739 5.81909 9.77092 5.8156 9.76936 5.81404L9.06226 6.52115C9.27437 6.73327 9.53282 6.81128 9.78115 6.84467C10.0151 6.87612 10.3052 6.87506 10.625 6.87506V5.87506Z" fill="#024638"/>
</svg>
