<svg width="36" height="36" viewBox="0 0 36 36" fill="none" xmlns="http://www.w3.org/2000/svg">
<path d="M18.3984 29.8075L18.6232 30.2541H18.6232L18.3984 29.8075ZM17.6016 29.8075L17.8263 29.3608L17.6016 29.8075ZM28 16.5C28 20.1971 26.0537 23.1619 23.8186 25.3475C21.585 27.5318 19.1105 28.8893 18.1737 29.3608L18.6232 30.2541C19.6037 29.7606 22.18 28.3486 24.5178 26.0625C26.8542 23.7777 29 20.5712 29 16.5H28ZM18 6.5C23.5228 6.5 28 10.9772 28 16.5H29C29 10.4249 24.0751 5.5 18 5.5V6.5ZM8 16.5C8 10.9772 12.4772 6.5 18 6.5V5.5C11.9249 5.5 7 10.4249 7 16.5H8ZM17.8263 29.3608C16.8895 28.8893 14.415 27.5318 12.1814 25.3475C9.94634 23.1619 8 20.1971 8 16.5H7C7 20.5712 9.14577 23.7777 11.4822 26.0625C13.82 28.3486 16.3963 29.7606 17.3768 30.2541L17.8263 29.3608ZM18.1737 29.3608C18.0606 29.4177 17.9394 29.4177 17.8263 29.3608L17.3768 30.2541C17.7726 30.4533 18.2274 30.4533 18.6232 30.2541L18.1737 29.3608ZM22 16.5C22 18.7091 20.2091 20.5 18 20.5V21.5C20.7614 21.5 23 19.2614 23 16.5H22ZM18 12.5C20.2091 12.5 22 14.2909 22 16.5H23C23 13.7386 20.7614 11.5 18 11.5V12.5ZM14 16.5C14 14.2909 15.7909 12.5 18 12.5V11.5C15.2386 11.5 13 13.7386 13 16.5H14ZM18 20.5C15.7909 20.5 14 18.7091 14 16.5H13C13 19.2614 15.2386 21.5 18 21.5V20.5Z" fill="#024638"/>
</svg>
