<svg width="17" height="17" viewBox="0 0 17 17" fill="none" xmlns="http://www.w3.org/2000/svg">
<path d="M6.375 4.9584L9.20833 4.9584" stroke="#024638" stroke-linecap="round"/>
<path d="M6.375 10.6251L8.5 10.6251" stroke="#024638" stroke-linecap="round"/>
<path d="M6.375 7.79175L10.625 7.79175" stroke="#024638" stroke-linecap="round"/>
<path d="M13.4583 7.79174V7.08341C13.4583 5.25363 13.4583 4.33874 13.0726 3.65351C12.8034 3.17525 12.4082 2.78 11.9299 2.51079C11.2447 2.12508 10.3298 2.12508 8.49999 2.12508V2.12508C6.67021 2.12508 5.75532 2.12508 5.07009 2.51079C4.59183 2.78 4.19658 3.17525 3.92737 3.65351C3.54166 4.33874 3.54166 5.25363 3.54166 7.08341V9.91674C3.54166 11.7465 3.54166 12.6614 3.92737 13.3466C4.19658 13.8249 4.59183 14.2202 5.07009 14.4894C5.75532 14.8751 6.67021 14.8751 8.49999 14.8751V14.8751" stroke="#024638" stroke-linecap="round"/>
<circle cx="12.3958" cy="12.3959" r="1.77083" stroke="#024638" stroke-linecap="round"/>
<path d="M14.875 14.8751L13.8125 13.8126" stroke="#024638" stroke-linecap="round"/>
</svg>
