<svg width="24" height="24" viewBox="0 0 24 24" fill="none" xmlns="http://www.w3.org/2000/svg">
<path d="M21 13H21.5H21ZM19.8317 6.99084L19.3597 6.8257L19.8317 6.99084ZM17.9908 8.83165L17.8257 8.35971L17.9908 8.83165ZM15.2929 16.7071L14.9393 17.0607L15.2929 16.7071ZM15.2929 13.2929L14.9393 12.9393L15.2929 13.2929ZM20.7071 9.29289L21.0607 8.93934H21.0607L20.7071 9.29289ZM19 21V21.5V21ZM20.7071 20.7071L20.3536 20.3536L20.7071 20.7071ZM7.00001 21V21.5V21ZM3.58579 20.4142L3.23224 20.7678L3.58579 20.4142ZM19.6651 4.02806L19.8303 3.55612L19.6651 4.02806ZM19.9719 4.33486L20.4439 4.16972L19.9719 4.33486ZM5.50001 4.5L19.2857 4.5V3.5L5.50001 3.5L5.50001 4.5ZM7.00001 21.5L19 21.5V20.5L7.00001 20.5V21.5ZM2.50001 6.5L2.50001 17H3.50001L3.50001 6.5H2.50001ZM19 8.5L5.50001 8.5V9.5L19 9.5L19 8.5ZM20.5 17L20.5 19H21.5L21.5 17H20.5ZM20.5 11L20.5 13H21.5L21.5 11H20.5ZM17 17.5H21V16.5H17V17.5ZM20.5 13L20.5 17H21.5L21.5 13H20.5ZM21 12.5H17V13.5H21V12.5ZM15.7143 8.5L15 8.5V9.5L15.7143 9.5V8.5ZM19.5 4.71428C19.5 5.95309 19.4929 6.44498 19.3597 6.8257L20.3036 7.15598C20.5071 6.57446 20.5 5.8694 20.5 4.71428H19.5ZM15.7143 9.5C16.8694 9.5 17.5745 9.50707 18.156 9.30359L17.8257 8.35971C17.445 8.49293 16.9531 8.5 15.7143 8.5V9.5ZM19.3597 6.8257C19.1084 7.54381 18.5438 8.10843 17.8257 8.35971L18.156 9.30359C19.1613 8.9518 19.9518 8.16134 20.3036 7.15598L19.3597 6.8257ZM14.5 15C14.5 15.4573 14.4989 15.8505 14.5411 16.1639C14.5851 16.4917 14.6845 16.8058 14.9393 17.0607L15.6464 16.3536C15.6084 16.3155 15.5613 16.2475 15.5322 16.0306C15.5011 15.7994 15.5 15.4855 15.5 15H14.5ZM17 16.5C16.5145 16.5 16.2006 16.4989 15.9694 16.4678C15.7525 16.4387 15.6845 16.3916 15.6464 16.3536L14.9393 17.0607C15.1942 17.3155 15.5083 17.4149 15.8361 17.4589C16.1495 17.5011 16.5427 17.5 17 17.5V16.5ZM15.5 15C15.5 14.5145 15.5011 14.2006 15.5322 13.9694C15.5613 13.7525 15.6084 13.6845 15.6464 13.6464L14.9393 12.9393C14.6845 13.1942 14.5851 13.5083 14.5411 13.8361C14.4989 14.1495 14.5 14.5427 14.5 15H15.5ZM17 12.5C16.5427 12.5 16.1495 12.4989 15.8361 12.5411C15.5083 12.5851 15.1942 12.6845 14.9393 12.9393L15.6464 13.6464C15.6845 13.6084 15.7525 13.5613 15.9694 13.5322C16.2006 13.5011 16.5145 13.5 17 13.5V12.5ZM19 9.5C19.4855 9.5 19.7994 9.50106 20.0306 9.53215C20.2475 9.56131 20.3155 9.60838 20.3536 9.64645L21.0607 8.93934C20.8058 8.68451 20.4917 8.58514 20.1639 8.54107C19.8505 8.49894 19.4573 8.5 19 8.5L19 9.5ZM21.5 11C21.5 10.5427 21.5011 10.1495 21.4589 9.8361C21.4149 9.50835 21.3155 9.19417 21.0607 8.93934L20.3536 9.64645C20.3916 9.68451 20.4387 9.75248 20.4678 9.96935C20.4989 10.2006 20.5 10.5145 20.5 11H21.5ZM19 21.5C19.4573 21.5 19.8505 21.5011 20.1639 21.4589C20.4917 21.4149 20.8058 21.3155 21.0607 21.0607L20.3536 20.3536C20.3155 20.3916 20.2475 20.4387 20.0306 20.4678C19.7994 20.4989 19.4855 20.5 19 20.5V21.5ZM20.5 19C20.5 19.4855 20.4989 19.7994 20.4678 20.0306C20.4387 20.2475 20.3916 20.3155 20.3536 20.3536L21.0607 21.0607C21.3155 20.8058 21.4149 20.4917 21.4589 20.1639C21.5011 19.8505 21.5 19.4573 21.5 19H20.5ZM7.00001 20.5C6.04306 20.5 5.37566 20.4989 4.87209 20.4312C4.3829 20.3655 4.12386 20.2452 3.93935 20.0607L3.23224 20.7678C3.63352 21.169 4.13877 21.3416 4.73884 21.4223C5.32453 21.5011 6.07133 21.5 7.00001 21.5V20.5ZM2.50001 17C2.50001 17.9287 2.49895 18.6755 2.57769 19.2612C2.65837 19.8612 2.83096 20.3665 3.23224 20.7678L3.93935 20.0607C3.75484 19.8762 3.63454 19.6171 3.56877 19.1279C3.50107 18.6244 3.50001 17.9569 3.50001 17H2.50001ZM2.50001 6.5C2.50001 8.15685 3.84315 9.5 5.50001 9.5V8.5C4.39544 8.5 3.50001 7.60457 3.50001 6.5H2.50001ZM19.2857 4.5C19.3913 4.5 19.449 4.5002 19.4909 4.50265C19.5292 4.50489 19.5222 4.50775 19.5 4.5L19.8303 3.55612C19.6497 3.49293 19.4434 3.5 19.2857 3.5V4.5ZM20.5 4.71428C20.5 4.55664 20.5071 4.35031 20.4439 4.16972L19.5 4.5C19.4922 4.47784 19.4951 4.47083 19.4973 4.50906C19.4998 4.55095 19.5 4.60869 19.5 4.71428H20.5ZM19.5 4.5L20.4439 4.16972C20.3434 3.88247 20.1175 3.65663 19.8303 3.55612L19.5 4.5ZM3.50001 6.5C3.50001 5.39543 4.39544 4.5 5.50001 4.5L5.50001 3.5C3.84315 3.5 2.50001 4.84315 2.50001 6.5H3.50001Z" fill="white"/>
</svg>
