<svg width="100" height="110" viewBox="0 0 100 110" fill="none" xmlns="http://www.w3.org/2000/svg">
<g clip-path="url(#clip0_15_195)">
<path d="M60.6013 96.5863H39.3199C24.6766 96.5863 12.7989 84.664 12.7989 69.9477V40.1313C12.7989 25.4149 24.6766 13.4927 39.3199 13.4927H60.6013C75.2446 13.4927 87.1222 25.4149 87.1222 40.1313V69.9569C87.1127 84.6737 75.2348 96.5863 60.6013 96.5863Z" stroke="white" stroke-width="2"/>
<path d="M1.86299 49.8821C1.70527 50.1692 1.57713 50.4662 1.47856 50.7632C1.37999 51.0601 1.32085 51.3373 1.32085 51.6046C1.32085 51.9313 1.38985 52.1787 1.51799 52.3668C1.64613 52.5549 1.84327 52.644 2.09956 52.644C2.27698 52.644 2.4347 52.5747 2.5727 52.4361C2.7107 52.2975 2.83884 52.1193 2.94726 51.8917C3.05569 51.6739 3.15426 51.4363 3.24298 51.1987C3.32183 50.9809 3.4204 50.7632 3.53869 50.5454C3.64712 50.3276 3.79497 50.1395 3.96254 49.9613C4.13011 49.793 4.33711 49.6544 4.58354 49.5555C4.82997 49.4565 5.13554 49.3971 5.50025 49.3971C5.88467 49.3971 6.23953 49.4961 6.56481 49.694C6.89009 49.892 7.15624 50.1791 7.35338 50.5652C7.55052 50.9512 7.65895 51.4165 7.65895 51.9808C7.65895 52.2678 7.62938 52.5648 7.57023 52.8618C7.51109 53.1588 7.42238 53.4557 7.30409 53.7428C7.18581 54.0299 7.03795 54.3071 6.85067 54.5743L5.69739 53.921C5.82553 53.7428 5.94382 53.5448 6.04239 53.3369C6.14096 53.1291 6.21981 52.9212 6.2691 52.7034C6.32824 52.4955 6.34796 52.2975 6.34796 52.1193C6.34796 51.9412 6.31838 51.763 6.2691 51.5848C6.21981 51.4066 6.1311 51.2482 6.01281 51.1294C5.89453 51.0106 5.7171 50.9512 5.50025 50.9512C5.35239 50.9512 5.21439 51.0007 5.08625 51.0997C4.96797 51.1987 4.84968 51.3373 4.75111 51.4957C4.65254 51.664 4.56383 51.8422 4.48497 52.0402C4.39626 52.2777 4.29768 52.5153 4.1794 52.7628C4.06111 53.0103 3.92312 53.238 3.75555 53.4557C3.58797 53.6735 3.38098 53.8418 3.13455 53.9804C2.88812 54.1091 2.58255 54.1784 2.21784 54.1784C1.78413 54.1784 1.3997 54.0794 1.08428 53.8814C0.768852 53.6834 0.512568 53.4062 0.325284 53.0499C0.137999 52.6935 0.0295713 52.2876 0.00985718 51.8224C0.00985718 51.2086 0.0788567 50.7137 0.226713 50.3375C0.374569 49.9613 0.542139 49.6148 0.739281 49.3179L1.86299 49.8821Z" fill="white"/>
<path d="M0.0887146 44.2795V42.8045L4.6624 40.9435L4.62297 41.2108L0.0887146 39.8249V38.2212L7.89552 41.1415L0.0887146 44.2795ZM0.0887146 48.0709V46.3286L4.81025 44.7151L4.71168 44.9527L1.22228 43.547L3.25283 42.854L7.90537 45.0318L0.0887146 48.0709Z" fill="white"/>
<path d="M0.0591431 35.6177L0.739281 30.5098L2.1587 30.6978L1.6757 34.3308L3.26269 34.5486L3.6964 31.3314L5.11582 31.5195L4.68211 34.7367L6.28881 34.9545L6.79152 31.1829L8.21094 31.371L7.51109 36.6275L0.0591431 35.6177Z" fill="white"/>
<path d="M1.6264 27.0846L3.4401 22.2637L4.78067 22.7685L3.48939 26.1937L4.98766 26.7678L6.13108 23.7288L7.47165 24.2336L6.32823 27.2727L7.84622 27.8468L9.18678 24.2831L10.5273 24.788L8.67421 29.7574L1.6264 27.0846Z" fill="white"/>
<path d="M4.78067 19.6402L7.54065 15.3638L8.74321 16.1458L7.74765 17.6901L12.8635 21.0261L12.0552 22.2734L6.93937 18.9374L5.98323 20.4223L4.78067 19.6402Z" fill="white"/>
<path d="M16.274 6.90964L20.2661 4.41504L21.0251 5.63264L18.2849 7.34521L19.1819 8.80039L21.5574 7.31551L22.3164 8.53311L19.9507 10.018L21.5081 12.5423L20.2464 13.3243L16.274 6.90964Z" fill="white"/>
<path d="M22.9177 3.21758L24.2878 2.65332L27.1661 9.64216L25.796 10.2064L22.9177 3.21758Z" fill="white"/>
<path d="M27.5505 1.46516L32.5678 0.356445L32.8733 1.76213L29.3051 2.55407L29.6501 4.12804L32.8043 3.4252L33.1099 4.83089L29.9556 5.53373L30.3105 7.1275L34.0168 6.30587L34.3223 7.71156L29.1671 8.84997L27.5505 1.46516Z" fill="white"/>
<path d="M36.0178 0.0400391H37.4963V6.15775H41.035V7.59313H36.0178V0.0400391Z" fill="white"/>
<path d="M43.0754 7.60304V0.0400391H45.3228C46.0818 0.0400391 46.7225 0.14893 47.2548 0.376612C47.7871 0.604294 48.2109 0.90127 48.5362 1.27744C48.8615 1.65361 49.0981 2.07928 49.2459 2.54454C49.3938 3.0098 49.4727 3.47506 49.4727 3.95023C49.4727 4.51448 49.3741 5.01934 49.1671 5.46481C48.9699 5.91027 48.6939 6.29634 48.3391 6.61311C47.9941 6.92989 47.59 7.17737 47.1365 7.34565C46.6831 7.51394 46.2001 7.59314 45.6875 7.59314H43.0754V7.60304ZM44.554 6.15775H45.4313C45.8058 6.15775 46.1508 6.10825 46.4564 6.00926C46.762 5.91027 47.0281 5.76178 47.245 5.5737C47.4618 5.38561 47.6392 5.13813 47.7575 4.85105C47.8758 4.56398 47.9349 4.2274 47.9349 3.85123C47.9349 3.35627 47.8561 2.96031 47.6984 2.64353C47.5407 2.33666 47.3435 2.08918 47.107 1.92089C46.8704 1.7526 46.6338 1.63381 46.3874 1.56452C46.141 1.49522 45.934 1.46553 45.7664 1.46553H44.554V6.15775Z" fill="white"/>
<path d="M55.4855 1.87117C55.1996 1.71278 54.9039 1.58409 54.6082 1.4851C54.3125 1.38611 54.0365 1.32671 53.7703 1.32671C53.4451 1.32671 53.1986 1.39601 53.0113 1.5247C52.8241 1.65339 52.7353 1.85137 52.7353 2.10875C52.7353 2.28694 52.8043 2.44533 52.9423 2.58391C53.0803 2.7225 53.2676 2.85119 53.4845 2.96008C53.7013 3.06898 53.9379 3.16797 54.1745 3.25706C54.3913 3.33625 54.6082 3.43525 54.825 3.55404C55.0419 3.66293 55.2292 3.81142 55.4066 3.9797C55.5742 4.14799 55.7122 4.35587 55.8107 4.60335C55.9093 4.85083 55.9684 5.15771 55.9684 5.52398C55.9684 5.91005 55.8699 6.26642 55.6727 6.59309C55.4756 6.91977 55.1897 7.18705 54.8053 7.38503C54.4209 7.58301 53.9576 7.69191 53.3958 7.69191C53.1099 7.69191 52.8142 7.66221 52.5185 7.60281C52.2228 7.54342 51.9271 7.45432 51.6412 7.33553C51.3554 7.21674 51.0794 7.06826 50.8132 6.88017L51.4638 5.72196C51.6412 5.85065 51.8285 5.96944 52.0454 6.06844C52.2524 6.16743 52.4594 6.24662 52.6762 6.29612C52.8832 6.35551 53.0803 6.37531 53.2578 6.37531C53.4352 6.37531 53.6126 6.34561 53.79 6.29612C53.9675 6.24662 54.1252 6.15753 54.2435 6.03874C54.3618 5.91995 54.4209 5.74176 54.4209 5.52398C54.4209 5.37549 54.3716 5.2369 54.273 5.11811C54.1745 4.99932 54.0365 4.88053 53.8788 4.78154C53.7112 4.68255 53.5338 4.59345 53.3268 4.51426C53.0902 4.42517 52.8536 4.32617 52.6072 4.20738C52.3608 4.08859 52.1341 3.95001 51.9172 3.78172C51.7004 3.61343 51.5328 3.40555 51.3948 3.15807C51.2568 2.91059 51.1977 2.60371 51.1977 2.23744C51.1977 1.80188 51.2962 1.41581 51.4934 1.09903C51.6905 0.782259 51.9665 0.524879 52.3214 0.336794C52.6762 0.148709 53.0803 0.0398179 53.5436 0.0200195C54.1548 0.0200195 54.6476 0.089314 55.0222 0.237802C55.3967 0.38629 55.7417 0.554577 56.0374 0.752561L55.4855 1.87117Z" fill="white"/>
<path d="M82.0601 7.99883C81.8926 7.71176 81.7053 7.45438 81.5081 7.21679C81.3011 6.97921 81.0941 6.79113 80.8674 6.65254C80.5914 6.48425 80.345 6.41496 80.1183 6.43476C79.8916 6.45456 79.7142 6.57335 79.586 6.80103C79.4973 6.94952 79.4776 7.1277 79.5269 7.31579C79.5761 7.50387 79.6649 7.71176 79.8029 7.91964C79.9409 8.12752 80.0887 8.3354 80.2464 8.53339C80.3943 8.71157 80.5323 8.90956 80.6506 9.11744C80.7787 9.32533 80.8674 9.54311 80.9364 9.77079C80.9956 9.99847 81.0054 10.2559 80.966 10.5231C80.9266 10.7904 80.8181 11.0775 80.6309 11.3943C80.4337 11.7209 80.1676 11.9783 79.8324 12.1565C79.4973 12.3347 79.1129 12.4139 78.6792 12.3941C78.2454 12.3743 77.792 12.2159 77.309 11.9288C77.0626 11.7803 76.826 11.612 76.5993 11.4042C76.3726 11.2062 76.1656 10.9785 75.9882 10.731C75.8009 10.4835 75.6432 10.2064 75.5052 9.90938L76.6584 9.24613C76.7472 9.44412 76.8556 9.6421 76.9837 9.84008C77.1119 10.0282 77.2499 10.2064 77.4076 10.3647C77.5653 10.5231 77.7132 10.6419 77.8709 10.731C78.0187 10.8201 78.1863 10.8894 78.3736 10.9389C78.551 10.9884 78.7284 10.9884 78.896 10.9488C79.0636 10.8993 79.2016 10.7904 79.31 10.6023C79.3889 10.4736 79.4184 10.3251 79.3889 10.1767C79.3692 10.0183 79.31 9.84998 79.2213 9.6817C79.1326 9.50351 79.0143 9.33522 78.8861 9.16694C78.7284 8.96895 78.5806 8.76107 78.4229 8.53339C78.275 8.30571 78.1469 8.06813 78.0483 7.81075C77.9497 7.55337 77.9103 7.28609 77.9202 7.00891C77.93 6.72183 78.0286 6.42486 78.2159 6.11798C78.4426 5.74181 78.7186 5.46464 79.0439 5.28645C79.379 5.10826 79.7437 5.02907 80.138 5.04887C80.5421 5.06867 80.9463 5.18746 81.3504 5.40524C81.8729 5.71211 82.2573 6.02889 82.5136 6.34566C82.7699 6.66244 82.967 6.98911 83.1247 7.30589L82.0601 7.99883Z" fill="white"/>
<path d="M85.8551 8.27588L87.0577 9.53308L84.761 13.9877L84.6723 13.7501L88.1617 12.3346L87.1661 14.2451L82.3066 15.9181L85.8551 8.27588ZM88.4771 11.0081L89.5022 12.0772L87.4914 16.6011L87.3337 16.3833L91.5525 14.2253L92.6565 15.3835L85.0173 18.7097L88.4771 11.0081Z" fill="white"/>
<path d="M94.4505 18.373L96.8359 22.9366L95.5643 23.6097L93.8689 20.3628L92.4495 21.1151L93.9478 23.9859L92.6762 24.659L91.1779 21.7784L89.7388 22.5406L91.5032 25.9162L90.2317 26.5894L87.7773 21.8972L94.4505 18.373Z" fill="white"/>
<path d="M98.0779 26.2529L99.379 31.2421L97.9892 31.6084L97.0626 28.0645L95.5052 28.4704L96.3233 31.6084L94.9335 31.9747L94.1153 28.8366L92.5382 29.2524L93.4944 32.9349L92.1045 33.3012L90.7738 28.1734L98.0779 26.2529Z" fill="white"/>
<path d="M99.793 34.1523L100.01 39.2405L98.5707 39.2999L98.4919 37.4587L92.4002 37.7161L92.341 36.2312L98.4327 35.9738L98.3637 34.2117L99.793 34.1523Z" fill="white"/>
<path d="M99.931 49.1396V53.8616H98.5017V50.6245H96.7965V53.426H95.3672V50.6245H92.4101V49.1396H99.931Z" fill="white"/>
<path d="M99.931 55.812V57.2969H92.4002V55.812H99.931Z" fill="white"/>
<path d="M99.931 59.7715V64.929H98.5017V61.2663H96.895V64.5132H95.4658V61.2663H93.8394V65.0775H92.4101V59.7814H99.931V59.7715Z" fill="white"/>
<path d="M99.931 67.1167V68.6016H93.8394V72.1653H92.4101V67.1167H99.931Z" fill="white"/>
<path d="M92.4495 73.9375L99.862 75.2541L99.4677 77.4814C99.3396 78.2338 99.1129 78.8475 98.7974 79.3326C98.482 79.8176 98.1173 80.1938 97.6836 80.4413C97.2597 80.6987 96.8063 80.8571 96.3233 80.9264C95.8403 80.9956 95.3672 80.9857 94.9039 80.9066C94.3519 80.8076 93.8787 80.6195 93.4746 80.3423C93.0705 80.0651 92.7452 79.7285 92.4889 79.3227C92.2425 78.9267 92.065 78.4812 91.9862 78.0061C91.8975 77.521 91.9073 77.036 91.996 76.5212L92.4495 73.9375ZM93.6027 75.6501L93.445 76.5212C93.376 76.8875 93.3662 77.2339 93.4155 77.5606C93.4549 77.8774 93.5535 78.1645 93.7013 78.4219C93.8492 78.6792 94.0562 78.8871 94.3223 79.0554C94.5885 79.2237 94.9039 79.3425 95.2686 79.4118C95.7516 79.5009 96.1557 79.491 96.4909 79.3821C96.826 79.2732 97.0922 79.1247 97.309 78.9267C97.516 78.7287 97.6737 78.5109 97.7822 78.2734C97.8906 78.0457 97.9596 77.8378 97.9892 77.6695L98.1962 76.4717L93.6027 75.6501Z" fill="white"/>
<path d="M94.3716 87.7367C94.6279 87.5387 94.8644 87.3209 95.0714 87.0833C95.2784 86.8458 95.4361 86.6181 95.5446 86.3706C95.6727 86.0736 95.7121 85.8162 95.6629 85.5985C95.6136 85.3807 95.4756 85.2124 95.239 85.1134C95.0714 85.0441 94.9039 85.0441 94.7166 85.1134C94.5293 85.1827 94.3519 85.3015 94.1547 85.4698C93.9675 85.6282 93.7802 85.8063 93.6126 85.9845C93.4549 86.1528 93.2775 86.3112 93.0902 86.4696C92.9029 86.628 92.6959 86.7468 92.479 86.8359C92.2622 86.9249 92.0158 86.9744 91.7398 86.9645C91.4638 86.9546 91.168 86.8853 90.8428 86.7468C90.4879 86.5983 90.2021 86.3607 89.9852 86.0538C89.7585 85.737 89.6304 85.3708 89.6008 84.9352C89.5712 84.4996 89.6599 84.0245 89.8866 83.5097C89.9951 83.2424 90.1429 82.9851 90.3105 82.7376C90.4781 82.4901 90.6752 82.2525 90.9019 82.0347C91.1286 81.817 91.375 81.619 91.651 81.4507L92.4495 82.5099C92.2622 82.6188 92.0749 82.7574 91.9073 82.9059C91.7299 83.0544 91.582 83.2226 91.4441 83.3909C91.3061 83.5592 91.2075 83.7275 91.1385 83.8958C91.0695 84.0641 91.0202 84.2324 91.0005 84.4204C90.9808 84.6085 91.0005 84.7768 91.0596 84.9352C91.1286 85.0936 91.2568 85.2124 91.4539 85.3015C91.5919 85.3609 91.7398 85.3708 91.8876 85.3312C92.0355 85.2916 92.1932 85.2124 92.3509 85.0936C92.5086 84.9847 92.6663 84.8461 92.8142 84.6976C92.9916 84.5194 93.1789 84.3413 93.376 84.1631C93.583 83.9849 93.7999 83.8265 94.0365 83.6978C94.273 83.5691 94.5392 83.4899 94.8152 83.4602C95.101 83.4404 95.4066 83.4998 95.7319 83.6384C96.136 83.8166 96.4416 84.0542 96.6584 84.3611C96.8753 84.6679 97.0034 85.0243 97.033 85.4203C97.0626 85.8261 97.0034 86.2419 96.8359 86.6775C96.5993 87.2417 96.3331 87.6674 96.0571 87.9545C95.7811 88.2415 95.4854 88.489 95.1897 88.687L94.3716 87.7367Z" fill="white"/>
<path d="M73.1099 106.179C73.4352 106.219 73.7506 106.238 74.0661 106.229C74.3815 106.219 74.6575 106.159 74.8941 106.07C75.1898 105.951 75.4066 105.803 75.5249 105.615C75.653 105.427 75.6629 105.209 75.5742 104.971C75.5052 104.803 75.3869 104.684 75.2095 104.605C75.0321 104.526 74.8152 104.476 74.5688 104.457C74.3223 104.437 74.0759 104.427 73.8196 104.427C73.5831 104.427 73.3465 104.417 73.1099 104.387C72.8734 104.358 72.6368 104.298 72.4199 104.209C72.2031 104.11 71.9961 103.971 71.8088 103.773C71.6215 103.576 71.4638 103.308 71.3357 102.972C71.1977 102.615 71.1582 102.249 71.2272 101.873C71.2962 101.497 71.4638 101.14 71.7497 100.814C72.0355 100.487 72.4298 100.22 72.9522 100.022C73.2184 99.9128 73.5042 99.8336 73.7999 99.7841C74.0956 99.7346 74.4012 99.7049 74.7068 99.7148C75.0123 99.7247 75.3278 99.7643 75.6432 99.8435L75.4559 101.16C75.239 101.101 75.0222 101.071 74.7955 101.051C74.5688 101.031 74.3421 101.041 74.1252 101.061C73.9083 101.091 73.7211 101.13 73.5535 101.2C73.3859 101.269 73.2282 101.358 73.0804 101.467C72.9325 101.576 72.8241 101.714 72.7551 101.873C72.6861 102.031 72.6959 102.209 72.7748 102.417C72.8339 102.556 72.9226 102.665 73.0606 102.744C73.1986 102.823 73.3662 102.883 73.5535 102.912C73.7408 102.942 73.9478 102.962 74.1548 102.962C74.4012 102.962 74.6673 102.972 74.9335 102.991C75.2095 103.011 75.4658 103.061 75.7319 103.14C75.9882 103.219 76.2346 103.348 76.4416 103.536C76.6585 103.724 76.826 103.981 76.964 104.318C77.1217 104.724 77.171 105.12 77.102 105.486C77.033 105.852 76.8753 106.199 76.6092 106.496C76.343 106.803 76.0079 107.05 75.5742 107.238C75.0123 107.456 74.5195 107.575 74.1153 107.575C73.7112 107.575 73.3366 107.545 72.9818 107.466L73.1099 106.179Z" fill="white"/>
<path d="M66.7817 109.397L65.313 109.545L63.0163 105.16L63.2824 105.17L62.3657 109.832L60.7787 109.99L62.8881 101.903L66.7817 109.397ZM70.5372 109.02L68.8122 109.199L66.7422 104.635L66.9887 104.714L65.9438 108.337L65.0567 106.377L66.7521 101.507L70.5372 109.02Z" fill="white"/>
<path d="M58.3736 109.753H53.2381V108.317H56.8852V106.704H53.6521V105.268H56.8852V103.635H53.0902V102.2H58.3637V109.753H58.3736Z" fill="white"/>
<path d="M51.0498 109.753H45.9142V108.317H49.5614V106.704H46.3282V105.268H49.5614V103.635H45.7664V102.2H51.0399V109.753H51.0498Z" fill="white"/>
<path d="M44.2484 109.753H39.172V108.317H41.0054V102.2H42.484V108.317H44.2385V109.753H44.2484Z" fill="white"/>
<path d="M27.7674 108.367L23.3218 106.832L23.7851 105.476L26.831 106.525L27.383 104.902L24.7413 103.991L25.2045 102.635L27.8462 103.546L28.8024 100.734L30.2021 101.219L27.7674 108.367Z" fill="white"/>
<path d="M20.7196 105.526L19.4184 104.823L22.9965 98.1709L24.2977 98.8737L20.7196 105.526Z" fill="white"/>
<path d="M16.4416 103.031L12.4101 99.8337L13.2972 98.7052L16.1656 100.982L17.1612 99.7149L14.6279 97.7053L15.515 96.5768L18.0483 98.5864L19.0537 97.3094L16.0769 94.9435L16.964 93.8149L21.104 97.1015L16.4416 103.031Z" fill="white"/>
<path d="M9.9655 97.3392L9.02908 96.181L13.7703 92.3302L11.5426 89.5683L12.6565 88.6675L15.8107 92.5876L9.9655 97.3392Z" fill="white"/>
<path d="M11.7496 87.2815L4.94823 90.5087L3.99209 88.4694C3.66681 87.7864 3.49924 87.1528 3.46967 86.5688C3.44995 85.9847 3.53867 85.47 3.73581 85.0146C3.93295 84.5592 4.21881 84.1633 4.57366 83.8267C4.92852 83.4901 5.3228 83.2228 5.74665 83.0249C6.24936 82.7873 6.75207 82.6586 7.23507 82.6487C7.72792 82.6388 8.19121 82.7279 8.62492 82.9061C9.05863 83.0843 9.45291 83.3515 9.79791 83.6881C10.1429 84.0346 10.4288 84.4306 10.6456 84.8958L11.7496 87.2815ZM9.82748 86.549L9.45291 85.7472C9.2952 85.4106 9.09806 85.1136 8.8812 84.8859C8.66435 84.6483 8.41792 84.4701 8.15178 84.3514C7.88564 84.2326 7.58992 84.1831 7.28436 84.193C6.96893 84.2128 6.64365 84.3019 6.30851 84.4603C5.86494 84.6681 5.53965 84.9156 5.3228 85.1928C5.10594 85.47 4.9778 85.7571 4.92851 86.0441C4.87923 86.3312 4.86937 86.5985 4.91866 86.846C4.96794 87.0934 5.02709 87.3013 5.09609 87.4498L5.60865 88.5486L9.82748 86.549Z" fill="white"/>
<path d="M2.23757 77.1249C2.14886 77.4417 2.07986 77.7485 2.04043 78.0653C2.001 78.3821 2.01086 78.6593 2.06015 78.9167C2.12915 79.2334 2.24743 79.4611 2.40514 79.6195C2.57271 79.7779 2.77971 79.8274 3.036 79.768C3.21342 79.7284 3.35142 79.6294 3.45985 79.4611C3.56828 79.2928 3.64714 79.0948 3.71613 78.8474C3.77528 78.6098 3.82456 78.3623 3.86399 78.1049C3.89356 77.8772 3.9527 77.6397 4.01185 77.4021C4.08085 77.1645 4.16956 76.9467 4.2977 76.7487C4.42584 76.5507 4.60327 76.3726 4.82013 76.2142C5.04684 76.0657 5.3327 75.9469 5.68755 75.8677C6.06212 75.7885 6.42683 75.8083 6.79154 75.937C7.15625 76.0657 7.47168 76.2934 7.74768 76.6299C8.02367 76.9665 8.22082 77.4021 8.3391 77.9564C8.39824 78.2336 8.42781 78.5306 8.43767 78.8375C8.44753 79.1443 8.41796 79.4413 8.35882 79.7482C8.29967 80.0551 8.21096 80.3619 8.08282 80.6589L6.82111 80.253C6.90983 80.0551 6.97883 79.8373 7.03797 79.6096C7.08725 79.3819 7.12668 79.1641 7.13654 78.9463C7.1464 78.7286 7.13654 78.5306 7.09711 78.3524C7.05768 78.1742 6.99854 78.0059 6.90983 77.8376C6.82111 77.6694 6.70283 77.5407 6.56483 77.4516C6.41697 77.3625 6.23955 77.3328 6.02269 77.3823C5.87483 77.412 5.75655 77.4912 5.65798 77.61C5.55941 77.7287 5.48055 77.8871 5.41155 78.0752C5.34255 78.2633 5.29327 78.4613 5.2637 78.6692C5.22427 78.9167 5.17498 79.174 5.11584 79.4413C5.0567 79.7086 4.96798 79.966 4.83984 80.2035C4.72156 80.451 4.55399 80.6589 4.33713 80.847C4.12027 81.0252 3.83442 81.1638 3.47956 81.2331C3.05571 81.3222 2.66143 81.3123 2.30657 81.1836C1.95172 81.0549 1.64615 80.847 1.38987 80.5302C1.13358 80.2233 0.946297 79.8373 0.828012 79.3918C0.699871 78.7979 0.670299 78.293 0.729442 77.897C0.788584 77.4912 0.887155 77.1249 1.0153 76.7883L2.23757 77.1249Z" fill="white"/>
<path d="M69.6107 6.21658C69.6107 6.21658 69.0094 5.75132 68.2602 5.75132C68.1025 5.75132 67.9448 5.76122 67.8068 5.78102C68.073 5.62263 68.3687 5.39495 68.6447 5.11777C69.3642 4.39513 69.5022 3.36561 69.5022 3.36561C69.5022 3.36561 68.4771 3.5042 67.7575 4.22684C67.5702 4.41493 67.4027 4.61291 67.2745 4.801C67.3337 4.51392 67.3632 4.17735 67.3632 3.83087C67.3632 2.70236 66.6634 1.78174 66.6634 1.78174C66.6634 1.78174 65.9635 2.70236 65.9635 3.83087C65.9635 4.18725 65.9931 4.51392 66.0522 4.801C65.9142 4.61291 65.7565 4.41493 65.5693 4.22684C64.8497 3.5042 63.8246 3.36561 63.8246 3.36561C63.8246 3.36561 63.9626 4.39513 64.6821 5.11777C64.9581 5.39495 65.2538 5.62263 65.52 5.78102C65.382 5.76122 65.2243 5.75132 65.0665 5.75132C64.3273 5.75132 63.7161 6.21658 63.7161 6.21658C63.7161 6.21658 64.3174 6.68185 65.0665 6.68185C65.4313 6.68185 65.7664 6.62245 66.0128 6.53336C65.934 6.59275 65.8551 6.66205 65.7763 6.74124C65.4214 7.09761 65.3524 7.60247 65.3524 7.60247C65.3524 7.60247 65.8551 7.53318 66.21 7.17681C66.4465 6.93923 66.6042 6.67195 66.6535 6.49376C66.693 6.67195 66.8507 6.92933 67.0971 7.17681C67.452 7.53318 67.9547 7.60247 67.9547 7.60247C67.9547 7.60247 67.8857 7.09761 67.5308 6.74124C67.452 6.66205 67.3731 6.59275 67.2942 6.53336C67.5407 6.62245 67.8758 6.68185 68.2405 6.68185C69.0094 6.67195 69.6107 6.21658 69.6107 6.21658Z" fill="white"/>
<path d="M4.67226 62.6123C4.67226 62.6123 4.20897 63.2162 4.20897 63.9685C4.20897 64.1269 4.21883 64.2853 4.23854 64.4239C4.08083 64.1566 3.85412 63.8596 3.57812 63.5824C2.85855 62.8598 1.83342 62.7212 1.83342 62.7212C1.83342 62.7212 1.97142 63.7507 2.69098 64.4734C2.87827 64.6614 3.07541 64.8297 3.26269 64.9584C2.97684 64.899 2.6417 64.8693 2.2967 64.8693C1.17299 64.8693 0.256287 65.5722 0.256287 65.5722C0.256287 65.5722 1.17299 66.275 2.2967 66.275C2.65156 66.275 2.97684 66.2453 3.26269 66.1859C3.07541 66.3245 2.87827 66.4829 2.69098 66.671C1.97142 67.3936 1.83342 68.4231 1.83342 68.4231C1.83342 68.4231 2.85855 68.2845 3.57812 67.5619C3.85412 67.2847 4.08083 66.9877 4.23854 66.7205C4.21883 66.8591 4.20897 67.0174 4.20897 67.1758C4.20897 67.9183 4.67226 68.532 4.67226 68.532C4.67226 68.532 5.13554 67.9282 5.13554 67.1758C5.13554 66.8096 5.0764 66.473 4.98768 66.2255C5.04682 66.3047 5.11582 66.3839 5.19468 66.4631C5.54953 66.8195 6.05225 66.8888 6.05225 66.8888C6.05225 66.8888 5.98325 66.3839 5.62839 66.0275C5.39182 65.7899 5.12568 65.6316 4.94825 65.5821C5.12568 65.5425 5.38196 65.3841 5.62839 65.1366C5.98325 64.7802 6.05225 64.2754 6.05225 64.2754C6.05225 64.2754 5.54953 64.3447 5.19468 64.701C5.11582 64.7802 5.04682 64.8594 4.98768 64.9386C5.0764 64.6911 5.13554 64.3546 5.13554 63.9883C5.13554 63.2162 4.67226 62.6123 4.67226 62.6123Z" fill="white"/>
<path d="M83.2134 97.3192C83.2134 97.3192 83.9626 97.2202 84.4948 96.6857C84.6033 96.5768 84.7117 96.458 84.7906 96.3392C84.7117 96.6362 84.6624 97.0024 84.6624 97.4083C84.6624 98.4279 85.2933 99.2495 85.2933 99.2495C85.2933 99.2495 85.9241 98.4279 85.9241 97.4083C85.9241 97.141 85.9044 96.8836 85.865 96.656C86.0325 96.9034 86.2395 97.1608 86.486 97.4083C87.2844 98.2101 88.4179 98.3586 88.4179 98.3586C88.4179 98.3586 88.2701 97.2103 87.4717 96.4184C87.2252 96.1709 86.969 95.963 86.7225 95.7947C86.9492 95.8343 87.2055 95.8541 87.4717 95.8541C88.487 95.8541 89.3051 95.2206 89.3051 95.2206C89.3051 95.2206 88.487 94.587 87.4717 94.587C87.0774 94.587 86.7127 94.6365 86.4071 94.7157C86.5254 94.6266 86.6338 94.5276 86.7521 94.4187C87.2745 93.8941 87.383 93.1318 87.383 93.1318C87.383 93.1318 86.6338 93.2308 86.1015 93.7654C85.8354 94.0327 85.6481 94.3098 85.5298 94.5375C85.5397 94.4385 85.5495 94.3395 85.5495 94.2307C85.5495 93.7258 85.244 93.3199 85.244 93.3199C85.244 93.3199 84.9384 93.7258 84.9384 94.2307C84.9384 94.5672 85.0074 94.8642 85.106 95.0226C84.9483 94.9236 84.6526 94.8543 84.3174 94.8543C83.8147 94.8543 83.4106 95.1612 83.4106 95.1612C83.4106 95.1612 83.8147 95.4681 84.3174 95.4681C84.4258 95.4681 84.5343 95.4582 84.623 95.4483C84.3864 95.5571 84.1104 95.7551 83.8541 96.0224C83.312 96.557 83.2134 97.3192 83.2134 97.3192Z" fill="white"/>
<path d="M40.1084 50.8326C40.0591 50.7831 40 50.7237 39.9507 50.6742C33.307 44.0021 23.8147 42.7251 23.8147 42.7251C23.8147 42.7251 25.0862 52.258 31.7299 58.9301C34.3223 61.5336 37.033 63.6124 39.4973 65.0775C38.1863 64.8993 36.7767 64.8003 35.2982 64.8003C28.4081 64.8003 22.8191 69.0867 22.8191 69.0867C22.8191 69.0867 28.4081 73.3731 35.2982 73.3731C38.7186 73.3731 41.8236 72.8385 44.071 72.0466C43.3514 72.591 42.622 73.2345 41.9123 73.9472C38.6299 77.2337 38.0089 81.9458 38.0089 81.9458C38.0089 81.9458 42.691 81.3122 45.9734 78.0257C45.9931 78.0059 46.0128 77.9861 46.0325 77.9663C46.8211 77.1644 47.5012 76.2735 48.0631 75.3133C43.8048 68.0968 41.311 58.8509 40.1084 50.8326Z" fill="white"/>
<path d="M77.0922 69.0867C77.0922 69.0867 71.5032 64.8003 64.6131 64.8003C63.1444 64.8003 61.725 64.8993 60.414 65.0775C62.8783 63.6124 65.589 61.5237 68.1814 58.9301C74.825 52.258 76.0966 42.7251 76.0966 42.7251C76.0966 42.7251 66.6042 44.0021 59.9606 50.6742C58.2159 52.4263 56.7077 54.228 55.4559 55.9801C55.4559 55.9801 55.4559 55.9801 55.4559 55.9702C55.9882 53.2974 56.3036 50.2287 56.3036 46.9718C56.3036 37.2904 50.7935 29.3018 49.9557 28.1436C49.1178 29.3018 43.6077 37.2904 43.6077 46.9718C43.6077 50.2287 43.9231 53.2875 44.4554 55.9702C44.4554 55.9702 44.4554 55.9702 44.4554 55.9801C44.4554 55.9702 44.4455 55.9702 44.4455 55.9603C45.9537 63.6223 48.5757 71.6407 53.1691 77.1545C53.3958 77.4218 53.6323 77.6891 53.8886 77.9465C53.9083 77.9663 53.9281 77.9861 53.9478 78.0059C57.2302 81.3023 61.9123 81.9259 61.9123 81.9259C61.9123 81.9259 61.2814 77.2238 58.0089 73.9274C57.2992 73.2146 56.5599 72.5712 55.8502 72.0267C58.1074 72.8187 61.2026 73.3532 64.623 73.3532C71.5032 73.373 77.0922 69.0867 77.0922 69.0867Z" fill="white"/>
</g>
<defs>
<clipPath id="clip0_15_195">
<rect width="100" height="110" fill="white"/>
</clipPath>
</defs>
</svg>
