<svg width="100" height="110" viewBox="0 0 100 110" fill="none" xmlns="http://www.w3.org/2000/svg">
<g clip-path="url(#clip0_4_3)">
<path d="M60.6013 96.5864H39.3199C24.6766 96.5864 12.7989 84.6641 12.7989 69.9478V40.1314C12.7989 25.4151 24.6766 13.4928 39.3199 13.4928H60.6013C75.2446 13.4928 87.1222 25.4151 87.1222 40.1314V69.9571C87.1127 84.6738 75.2348 96.5864 60.6013 96.5864Z" stroke="white" stroke-width="2"/>
<path d="M1.86299 49.8821C1.70527 50.1692 1.57713 50.4662 1.47856 50.7632C1.37999 51.0601 1.32085 51.3373 1.32085 51.6046C1.32085 51.9313 1.38985 52.1787 1.51799 52.3668C1.64613 52.5549 1.84327 52.644 2.09956 52.644C2.27698 52.644 2.4347 52.5747 2.5727 52.4361C2.7107 52.2975 2.83884 52.1193 2.94726 51.8917C3.05569 51.6739 3.15426 51.4363 3.24298 51.1987C3.32183 50.9809 3.4204 50.7632 3.53869 50.5454C3.64712 50.3276 3.79497 50.1395 3.96254 49.9613C4.13011 49.793 4.33711 49.6544 4.58354 49.5555C4.82997 49.4565 5.13554 49.3971 5.50025 49.3971C5.88467 49.3971 6.23953 49.4961 6.56481 49.694C6.89009 49.892 7.15624 50.1791 7.35338 50.5652C7.55052 50.9512 7.65895 51.4165 7.65895 51.9808C7.65895 52.2678 7.62938 52.5648 7.57023 52.8618C7.51109 53.1588 7.42238 53.4557 7.30409 53.7428C7.18581 54.0299 7.03795 54.3071 6.85067 54.5743L5.69739 53.921C5.82553 53.7428 5.94382 53.5448 6.04239 53.3369C6.14096 53.1291 6.21981 52.9212 6.2691 52.7034C6.32824 52.4955 6.34796 52.2975 6.34796 52.1193C6.34796 51.9412 6.31838 51.763 6.2691 51.5848C6.21981 51.4066 6.1311 51.2482 6.01282 51.1294C5.89453 51.0106 5.7171 50.9512 5.50025 50.9512C5.35239 50.9512 5.21439 51.0007 5.08625 51.0997C4.96797 51.1987 4.84968 51.3373 4.75111 51.4957C4.65254 51.664 4.56383 51.8422 4.48497 52.0402C4.39626 52.2777 4.29768 52.5153 4.1794 52.7628C4.06111 53.0103 3.92312 53.238 3.75555 53.4557C3.58797 53.6735 3.38098 53.8418 3.13455 53.9804C2.88812 54.1091 2.58255 54.1784 2.21784 54.1784C1.78413 54.1784 1.3997 54.0794 1.08428 53.8814C0.768852 53.6834 0.512568 53.4062 0.325284 53.0499C0.137999 52.6935 0.0295713 52.2876 0.00985718 51.8224C0.00985718 51.2086 0.0788567 50.7137 0.226713 50.3375C0.374569 49.9613 0.542139 49.6148 0.739281 49.3179L1.86299 49.8821Z" fill="white"/>
<path d="M0.0887146 44.2792V42.8042L4.6624 40.9431L4.62297 41.2104L0.0887146 39.8245V38.2209L7.89552 41.1411L0.0887146 44.2792ZM0.0887146 48.0706V46.3283L4.81025 44.7147L4.71168 44.9523L1.22228 43.5466L3.25283 42.8537L7.90537 45.0315L0.0887146 48.0706Z" fill="white"/>
<path d="M0.0591431 35.6173L0.739281 30.5093L2.1587 30.6974L1.6757 34.3304L3.26269 34.5482L3.6964 31.331L5.11582 31.5191L4.68211 34.7363L6.28881 34.9541L6.79152 31.1825L8.21094 31.3706L7.51109 36.627L0.0591431 35.6173Z" fill="white"/>
<path d="M1.6264 27.0842L3.4401 22.2633L4.78067 22.7681L3.48939 26.1933L4.98766 26.7674L6.13109 23.7284L7.47165 24.2332L6.32823 27.2723L7.84622 27.8464L9.18678 24.2827L10.5273 24.7876L8.67421 29.757L1.6264 27.0842Z" fill="white"/>
<path d="M4.78067 19.64L7.54065 15.3636L8.74321 16.1456L7.74765 17.6899L12.8635 21.0259L12.0552 22.2732L6.93937 18.9372L5.98323 20.422L4.78067 19.64Z" fill="white"/>
<path d="M16.274 6.90961L20.2661 4.41501L21.0251 5.63261L18.2849 7.34518L19.1819 8.80036L21.5574 7.31548L22.3164 8.53308L19.9507 10.018L21.5081 12.5423L20.2464 13.3243L16.274 6.90961Z" fill="white"/>
<path d="M22.9177 3.21724L24.2878 2.65298L27.1661 9.64182L25.796 10.2061L22.9177 3.21724Z" fill="white"/>
<path d="M27.5505 1.46503L32.5678 0.356323L32.8733 1.76201L29.3051 2.55395L29.6501 4.12792L32.8043 3.42508L33.1099 4.83077L29.9556 5.53361L30.3105 7.12738L34.0168 6.30575L34.3223 7.71144L29.1671 8.84984L27.5505 1.46503Z" fill="white"/>
<path d="M36.0178 0.0395508H37.4963V6.15726H41.035V7.59265H36.0178V0.0395508Z" fill="white"/>
<path d="M43.0754 7.60255V0.0395508H45.3228C46.0818 0.0395508 46.7225 0.148442 47.2548 0.376124C47.7871 0.603806 48.2109 0.900782 48.5362 1.27695C48.8615 1.65312 49.0981 2.07879 49.2459 2.54405C49.3938 3.00931 49.4727 3.47458 49.4727 3.94974C49.4727 4.51399 49.3741 5.01885 49.1671 5.46432C48.9699 5.90978 48.6939 6.29585 48.3391 6.61263C47.9941 6.9294 47.59 7.17688 47.1365 7.34517C46.6831 7.51345 46.2001 7.59265 45.6875 7.59265H43.0754V7.60255ZM44.554 6.15726H45.4313C45.8058 6.15726 46.1508 6.10777 46.4564 6.00877C46.762 5.90978 47.0281 5.76129 47.245 5.57321C47.4618 5.38512 47.6392 5.13764 47.7575 4.85057C47.8758 4.56349 47.9349 4.22692 47.9349 3.85075C47.9349 3.35579 47.8561 2.95982 47.6984 2.64304C47.5407 2.33617 47.3435 2.08869 47.107 1.9204C46.8704 1.75211 46.6338 1.63332 46.3874 1.56403C46.141 1.49473 45.934 1.46504 45.7664 1.46504H44.554V6.15726Z" fill="white"/>
<path d="M55.4855 1.87093C55.1996 1.71254 54.9039 1.58385 54.6082 1.48486C54.3125 1.38587 54.0365 1.32647 53.7703 1.32647C53.4451 1.32647 53.1986 1.39577 53.0113 1.52445C52.8241 1.65314 52.7353 1.85113 52.7353 2.10851C52.7353 2.28669 52.8043 2.44508 52.9423 2.58367C53.0803 2.72226 53.2676 2.85095 53.4845 2.95984C53.7013 3.06873 53.9379 3.16772 54.1745 3.25682C54.3913 3.33601 54.6082 3.435 54.825 3.55379C55.0419 3.66268 55.2292 3.81117 55.4066 3.97946C55.5742 4.14775 55.7122 4.35563 55.8107 4.60311C55.9093 4.85059 55.9684 5.15746 55.9684 5.52373C55.9684 5.9098 55.8699 6.26618 55.6727 6.59285C55.4756 6.91952 55.1897 7.1868 54.8053 7.38479C54.4209 7.58277 53.9576 7.69166 53.3958 7.69166C53.1099 7.69166 52.8142 7.66196 52.5185 7.60257C52.2228 7.54317 51.9271 7.45408 51.6412 7.33529C51.3554 7.2165 51.0794 7.06801 50.8132 6.87993L51.4638 5.72172C51.6412 5.85041 51.8285 5.9692 52.0454 6.06819C52.2524 6.16718 52.4594 6.24638 52.6762 6.29587C52.8832 6.35527 53.0803 6.37507 53.2578 6.37507C53.4352 6.37507 53.6126 6.34537 53.79 6.29587C53.9675 6.24638 54.1252 6.15728 54.2435 6.03849C54.3618 5.9197 54.4209 5.74152 54.4209 5.52373C54.4209 5.37525 54.3716 5.23666 54.273 5.11787C54.1745 4.99908 54.0365 4.88029 53.8788 4.78129C53.7112 4.6823 53.5338 4.59321 53.3268 4.51402C53.0902 4.42492 52.8536 4.32593 52.6072 4.20714C52.3608 4.08835 52.1341 3.94976 51.9172 3.78147C51.7004 3.61319 51.5328 3.4053 51.3948 3.15782C51.2568 2.91034 51.1977 2.60347 51.1977 2.2372C51.1977 1.80163 51.2962 1.41556 51.4934 1.09879C51.6905 0.782014 51.9665 0.524635 52.3214 0.33655C52.6762 0.148465 53.0803 0.0395738 53.5436 0.0197754C54.1548 0.0197754 54.6476 0.0890699 55.0222 0.237558C55.3967 0.386046 55.7417 0.554333 56.0374 0.752317L55.4855 1.87093Z" fill="white"/>
<path d="M82.0601 7.99853C81.8926 7.71145 81.7053 7.45407 81.5081 7.21649C81.3011 6.97891 81.0941 6.79082 80.8674 6.65223C80.5914 6.48395 80.345 6.41465 80.1183 6.43445C79.8916 6.45425 79.7142 6.57304 79.586 6.80072C79.4973 6.94921 79.4776 7.1274 79.5269 7.31548C79.5761 7.50357 79.6649 7.71145 79.8029 7.91933C79.9409 8.12722 80.0887 8.3351 80.2464 8.53308C80.3943 8.71127 80.5323 8.90925 80.6506 9.11714C80.7787 9.32502 80.8674 9.5428 80.9364 9.77048C80.9956 9.99817 81.0054 10.2555 80.966 10.5228C80.9266 10.7901 80.8181 11.0772 80.6309 11.394C80.4337 11.7206 80.1676 11.978 79.8324 12.1562C79.4973 12.3344 79.1129 12.4136 78.6792 12.3938C78.2454 12.374 77.792 12.2156 77.309 11.9285C77.0626 11.78 76.826 11.6117 76.5993 11.4039C76.3726 11.2059 76.1656 10.9782 75.9882 10.7307C75.8009 10.4832 75.6432 10.206 75.5052 9.90907L76.6584 9.24583C76.7472 9.44381 76.8556 9.6418 76.9837 9.83978C77.1119 10.0279 77.2499 10.206 77.4076 10.3644C77.5653 10.5228 77.7132 10.6416 77.8709 10.7307C78.0187 10.8198 78.1863 10.8891 78.3736 10.9386C78.551 10.9881 78.7284 10.9881 78.896 10.9485C79.0636 10.899 79.2016 10.7901 79.31 10.602C79.3889 10.4733 79.4184 10.3248 79.3889 10.1764C79.3692 10.018 79.31 9.84968 79.2213 9.68139C79.1326 9.50321 79.0143 9.33492 78.8861 9.16663C78.7284 8.96865 78.5806 8.76077 78.4229 8.53308C78.275 8.3054 78.1469 8.06782 78.0483 7.81044C77.9497 7.55306 77.9103 7.28578 77.9202 7.00861C77.93 6.72153 78.0286 6.42455 78.2159 6.11768C78.4426 5.74151 78.7186 5.46433 79.0439 5.28614C79.379 5.10796 79.7437 5.02876 80.138 5.04856C80.5421 5.06836 80.9463 5.18715 81.3504 5.40493C81.8729 5.71181 82.2573 6.02858 82.5136 6.34536C82.7699 6.66213 82.967 6.98881 83.1247 7.30558L82.0601 7.99853Z" fill="white"/>
<path d="M85.8551 8.2757L87.0577 9.5329L84.761 13.9875L84.6723 13.75L88.1617 12.3344L87.1661 14.2449L82.3066 15.9179L85.8551 8.2757ZM88.4771 11.0079L89.5022 12.077L87.4914 16.6009L87.3337 16.3832L91.5525 14.2251L92.6565 15.3833L85.0173 18.7095L88.4771 11.0079Z" fill="white"/>
<path d="M94.4505 18.3729L96.8359 22.9364L95.5643 23.6096L93.8689 20.3626L92.4495 21.115L93.9478 23.9857L92.6762 24.6589L91.1779 21.7782L89.7388 22.5405L91.5032 25.9161L90.2317 26.5892L87.7773 21.897L94.4505 18.3729Z" fill="white"/>
<path d="M98.0779 26.2527L99.379 31.2419L97.9892 31.6082L97.0626 28.0642L95.5052 28.4701L96.3233 31.6082L94.9335 31.9744L94.1153 28.8364L92.5382 29.2521L93.4944 32.9346L92.1045 33.3009L90.7738 28.1731L98.0779 26.2527Z" fill="white"/>
<path d="M99.793 34.1523L100.01 39.2405L98.5707 39.2998L98.4919 37.4586L92.4002 37.716L92.341 36.2311L98.4327 35.9737L98.3637 34.2116L99.793 34.1523Z" fill="white"/>
<path d="M99.931 49.1396V53.8616H98.5018V50.6245H96.7965V53.426H95.3672V50.6245H92.4101V49.1396H99.931V49.1396Z" fill="white"/>
<path d="M99.931 55.8117V57.2966H92.4002V55.8117H99.931Z" fill="white"/>
<path d="M99.931 59.7714V64.9289H98.5018V61.2661H96.8951V64.5131H95.4658V61.2661H93.8394V65.0773H92.4101V59.7813H99.931V59.7714Z" fill="white"/>
<path d="M99.931 67.1166V68.6015H93.8394V72.1652H92.4101V67.1166H99.931Z" fill="white"/>
<path d="M92.4495 73.9372L99.862 75.2538L99.4677 77.4811C99.3396 78.2334 99.1129 78.8472 98.7974 79.3322C98.482 79.8173 98.1173 80.1935 97.6836 80.441C97.2597 80.6983 96.8063 80.8567 96.3233 80.926C95.8403 80.9953 95.3672 80.9854 94.9039 80.9062C94.3519 80.8072 93.8787 80.6191 93.4746 80.342C93.0705 80.0648 92.7452 79.7282 92.4889 79.3223C92.2425 78.9264 92.065 78.4809 91.9862 78.0057C91.8975 77.5207 91.9073 77.0356 91.996 76.5209L92.4495 73.9372ZM93.6027 75.6497L93.445 76.5209C93.376 76.8871 93.3662 77.2336 93.4155 77.5603C93.4549 77.8771 93.5535 78.1641 93.7013 78.4215C93.8492 78.6789 94.0562 78.8868 94.3223 79.0551C94.5885 79.2233 94.9039 79.3421 95.2686 79.4114C95.7516 79.5005 96.1557 79.4906 96.4909 79.3817C96.826 79.2729 97.0922 79.1244 97.309 78.9264C97.516 78.7284 97.6737 78.5106 97.7822 78.273C97.8906 78.0453 97.9596 77.8375 97.9892 77.6692L98.1962 76.4714L93.6027 75.6497Z" fill="white"/>
<path d="M94.3716 87.7366C94.6279 87.5386 94.8644 87.3209 95.0714 87.0833C95.2784 86.8457 95.4361 86.618 95.5446 86.3705C95.6727 86.0736 95.7121 85.8162 95.6629 85.5984C95.6136 85.3806 95.4756 85.2123 95.239 85.1133C95.0714 85.044 94.9039 85.044 94.7166 85.1133C94.5293 85.1826 94.3519 85.3014 94.1547 85.4697C93.9675 85.6281 93.7802 85.8063 93.6126 85.9845C93.4549 86.1527 93.2775 86.3111 93.0902 86.4695C92.9029 86.6279 92.6959 86.7467 92.479 86.8358C92.2622 86.9249 92.0158 86.9744 91.7398 86.9645C91.4638 86.9546 91.168 86.8853 90.8428 86.7467C90.4879 86.5982 90.2021 86.3606 89.9852 86.0538C89.7585 85.737 89.6304 85.3707 89.6008 84.9351C89.5712 84.4996 89.6599 84.0244 89.8866 83.5097C89.9951 83.2424 90.1429 82.985 90.3105 82.7375C90.4781 82.49 90.6752 82.2525 90.9019 82.0347C91.1286 81.8169 91.375 81.6189 91.651 81.4506L92.4495 82.5098C92.2622 82.6187 92.0749 82.7573 91.9073 82.9058C91.7299 83.0543 91.582 83.2226 91.4441 83.3909C91.3061 83.5592 91.2075 83.7274 91.1385 83.8957C91.0695 84.064 91.0202 84.2323 91.0005 84.4204C90.9808 84.6085 91.0005 84.7768 91.0596 84.9351C91.1286 85.0935 91.2568 85.2123 91.4539 85.3014C91.5919 85.3608 91.7398 85.3707 91.8876 85.3311C92.0355 85.2915 92.1932 85.2123 92.3509 85.0935C92.5086 84.9846 92.6663 84.846 92.8142 84.6976C92.9916 84.5194 93.1789 84.3412 93.376 84.163C93.583 83.9848 93.7999 83.8264 94.0365 83.6977C94.273 83.5691 94.5392 83.4899 94.8152 83.4602C95.101 83.4404 95.4066 83.4998 95.7319 83.6383C96.136 83.8165 96.4416 84.0541 96.6584 84.361C96.8753 84.6679 97.0034 85.0242 97.033 85.4202C97.0626 85.8261 97.0034 86.2418 96.8359 86.6774C96.5993 87.2417 96.3331 87.6673 96.0571 87.9544C95.7811 88.2415 95.4854 88.489 95.1897 88.6869L94.3716 87.7366Z" fill="white"/>
<path d="M73.1099 106.179C73.4352 106.219 73.7506 106.238 74.0661 106.228C74.3815 106.219 74.6575 106.159 74.8941 106.07C75.1898 105.951 75.4066 105.803 75.5249 105.615C75.653 105.427 75.6629 105.209 75.5742 104.971C75.5052 104.803 75.3869 104.684 75.2095 104.605C75.0321 104.526 74.8152 104.476 74.5688 104.457C74.3223 104.437 74.0759 104.427 73.8196 104.427C73.5831 104.427 73.3465 104.417 73.1099 104.387C72.8734 104.358 72.6368 104.298 72.4199 104.209C72.2031 104.11 71.9961 103.971 71.8088 103.773C71.6215 103.575 71.4638 103.308 71.3357 102.972C71.1977 102.615 71.1582 102.249 71.2272 101.873C71.2962 101.497 71.4638 101.14 71.7497 100.814C72.0355 100.487 72.4298 100.22 72.9522 100.022C73.2184 99.9127 73.5042 99.8335 73.7999 99.7841C74.0956 99.7346 74.4012 99.7049 74.7068 99.7148C75.0123 99.7247 75.3278 99.7643 75.6432 99.8434L75.4559 101.16C75.239 101.101 75.0222 101.071 74.7955 101.051C74.5688 101.031 74.3421 101.041 74.1252 101.061C73.9083 101.091 73.7211 101.13 73.5535 101.2C73.3859 101.269 73.2282 101.358 73.0804 101.467C72.9325 101.576 72.8241 101.714 72.7551 101.873C72.6861 102.031 72.6959 102.209 72.7748 102.417C72.8339 102.556 72.9226 102.665 73.0606 102.744C73.1986 102.823 73.3662 102.883 73.5535 102.912C73.7408 102.942 73.9478 102.962 74.1548 102.962C74.4012 102.962 74.6673 102.972 74.9335 102.991C75.2095 103.011 75.4658 103.061 75.7319 103.14C75.9882 103.219 76.2346 103.348 76.4416 103.536C76.6585 103.724 76.826 103.981 76.964 104.318C77.1217 104.724 77.171 105.12 77.102 105.486C77.033 105.852 76.8753 106.199 76.6092 106.496C76.343 106.803 76.0079 107.05 75.5742 107.238C75.0123 107.456 74.5195 107.575 74.1153 107.575C73.7112 107.575 73.3366 107.545 72.9818 107.466L73.1099 106.179Z" fill="white"/>
<path d="M66.7817 109.396L65.313 109.545L63.0163 105.159L63.2824 105.169L62.3657 109.832L60.7787 109.99L62.8881 101.902L66.7817 109.396ZM70.5372 109.02L68.8122 109.198L66.7422 104.635L66.9887 104.714L65.9438 108.337L65.0567 106.377L66.7521 101.506L70.5372 109.02Z" fill="white"/>
<path d="M58.3736 109.752H53.2381V108.317H56.8852V106.704H53.6521V105.268H56.8852V103.635H53.0902V102.199H58.3637V109.752H58.3736Z" fill="white"/>
<path d="M51.0498 109.752H45.9142V108.317H49.5614V106.704H46.3282V105.268H49.5614V103.635H45.7664V102.199H51.0399V109.752H51.0498Z" fill="white"/>
<path d="M44.2484 109.752H39.172V108.317H41.0054V102.199H42.484V108.317H44.2385V109.752H44.2484Z" fill="white"/>
<path d="M27.7674 108.367L23.3218 106.832L23.7851 105.476L26.831 106.525L27.383 104.902L24.7413 103.991L25.2045 102.635L27.8462 103.546L28.8024 100.734L30.2021 101.219L27.7674 108.367Z" fill="white"/>
<path d="M20.7196 105.526L19.4184 104.823L22.9965 98.1705L24.2977 98.8733L20.7196 105.526Z" fill="white"/>
<path d="M16.4416 103.031L12.4101 99.8336L13.2972 98.705L16.1656 100.982L17.1612 99.7148L14.6279 97.7052L15.515 96.5767L18.0483 98.5863L19.0537 97.3093L16.0769 94.9433L16.964 93.8148L21.104 97.1014L16.4416 103.031Z" fill="white"/>
<path d="M9.9655 97.339L9.02908 96.1807L13.7703 92.3299L11.5426 89.5681L12.6565 88.6672L15.8107 92.5873L9.9655 97.339Z" fill="white"/>
<path d="M11.7496 87.2813L4.94823 90.5084L3.99209 88.4692C3.66681 87.7862 3.49924 87.1526 3.46967 86.5685C3.44995 85.9845 3.53867 85.4697 3.73581 85.0144C3.93295 84.559 4.21881 84.163 4.57366 83.8265C4.92852 83.4899 5.3228 83.2226 5.74665 83.0246C6.24936 82.787 6.75207 82.6583 7.23507 82.6484C7.72792 82.6385 8.19121 82.7276 8.62492 82.9058C9.05863 83.084 9.45291 83.3513 9.79791 83.6879C10.1429 84.0343 10.4288 84.4303 10.6456 84.8956L11.7496 87.2813ZM9.82748 86.5487L9.45291 85.7469C9.2952 85.4103 9.09806 85.1134 8.8812 84.8857C8.66435 84.6481 8.41792 84.4699 8.15178 84.3511C7.88564 84.2323 7.58992 84.1828 7.28436 84.1927C6.96893 84.2125 6.64365 84.3016 6.30851 84.46C5.86494 84.6679 5.53965 84.9154 5.3228 85.1925C5.10594 85.4697 4.9778 85.7568 4.92851 86.0439C4.87923 86.331 4.86937 86.5982 4.91866 86.8457C4.96794 87.0932 5.02709 87.3011 5.09609 87.4496L5.60865 88.5484L9.82748 86.5487Z" fill="white"/>
<path d="M2.23757 77.1247C2.14886 77.4415 2.07986 77.7483 2.04043 78.0651C2.001 78.3819 2.01086 78.6591 2.06015 78.9164C2.12915 79.2332 2.24743 79.4609 2.40514 79.6193C2.57271 79.7777 2.77971 79.8272 3.036 79.7678C3.21342 79.7282 3.35142 79.6292 3.45985 79.4609C3.56828 79.2926 3.64714 79.0946 3.71613 78.8471C3.77528 78.6096 3.82456 78.3621 3.86399 78.1047C3.89356 77.877 3.9527 77.6394 4.01185 77.4019C4.08085 77.1643 4.16956 76.9465 4.2977 76.7485C4.42584 76.5505 4.60327 76.3723 4.82013 76.214C5.04684 76.0655 5.33269 75.9467 5.68755 75.8675C6.06212 75.7883 6.42683 75.8081 6.79154 75.9368C7.15625 76.0655 7.47168 76.2931 7.74768 76.6297C8.02368 76.9663 8.22082 77.4019 8.3391 77.9562C8.39824 78.2334 8.42782 78.5304 8.43767 78.8372C8.44753 79.1441 8.41796 79.4411 8.35882 79.748C8.29967 80.0548 8.21096 80.3617 8.08282 80.6587L6.82111 80.2528C6.90983 80.0548 6.97883 79.8371 7.03797 79.6094C7.08725 79.3817 7.12668 79.1639 7.13654 78.9461C7.1464 78.7284 7.13654 78.5304 7.09711 78.3522C7.05768 78.174 6.99854 78.0057 6.90983 77.8374C6.82111 77.6691 6.70283 77.5405 6.56483 77.4514C6.41697 77.3623 6.23955 77.3326 6.02269 77.3821C5.87483 77.4118 5.75655 77.491 5.65798 77.6097C5.55941 77.7285 5.48055 77.8869 5.41155 78.075C5.34255 78.2631 5.29327 78.4611 5.2637 78.669C5.22427 78.9164 5.17498 79.1738 5.11584 79.4411C5.0567 79.7084 4.96798 79.9658 4.83984 80.2033C4.72156 80.4508 4.55399 80.6587 4.33713 80.8468C4.12027 81.025 3.83442 81.1636 3.47956 81.2328C3.05571 81.3219 2.66143 81.312 2.30657 81.1833C1.95172 81.0547 1.64615 80.8468 1.38987 80.53C1.13358 80.2231 0.946297 79.8371 0.828012 79.3916C0.699871 78.7976 0.670299 78.2928 0.729442 77.8968C0.788584 77.491 0.887155 77.1247 1.0153 76.7881L2.23757 77.1247Z" fill="white"/>
<path d="M69.6107 6.21671C69.6107 6.21671 69.0094 5.75144 68.2602 5.75144C68.1025 5.75144 67.9448 5.76134 67.8068 5.78114C68.073 5.62275 68.3687 5.39507 68.6447 5.11789C69.3642 4.39525 69.5022 3.36573 69.5022 3.36573C69.5022 3.36573 68.4771 3.50432 67.7575 4.22696C67.5702 4.41505 67.4027 4.61303 67.2745 4.80112C67.3337 4.51404 67.3632 4.17747 67.3632 3.831C67.3632 2.70249 66.6634 1.78186 66.6634 1.78186C66.6634 1.78186 65.9635 2.70249 65.9635 3.831C65.9635 4.18737 65.9931 4.51404 66.0522 4.80112C65.9142 4.61303 65.7565 4.41505 65.5693 4.22696C64.8497 3.50432 63.8246 3.36573 63.8246 3.36573C63.8246 3.36573 63.9626 4.39525 64.6821 5.11789C64.9581 5.39507 65.2538 5.62275 65.52 5.78114C65.382 5.76134 65.2243 5.75144 65.0665 5.75144C64.3273 5.75144 63.7161 6.21671 63.7161 6.21671C63.7161 6.21671 64.3174 6.68197 65.0665 6.68197C65.4313 6.68197 65.7664 6.62257 66.0128 6.53348C65.934 6.59288 65.8551 6.66217 65.7763 6.74136C65.4214 7.09773 65.3524 7.60259 65.3524 7.60259C65.3524 7.60259 65.8551 7.5333 66.21 7.17693C66.4465 6.93935 66.6042 6.67207 66.6535 6.49388C66.693 6.67207 66.8507 6.92945 67.0971 7.17693C67.452 7.5333 67.9547 7.60259 67.9547 7.60259C67.9547 7.60259 67.8857 7.09773 67.5308 6.74136C67.452 6.66217 67.3731 6.59288 67.2942 6.53348C67.5407 6.62257 67.8758 6.68197 68.2405 6.68197C69.0094 6.67207 69.6107 6.21671 69.6107 6.21671Z" fill="white"/>
<path d="M4.67226 62.6125C4.67226 62.6125 4.20897 63.2163 4.20897 63.9687C4.20897 64.1271 4.21883 64.2855 4.23854 64.424C4.08083 64.1568 3.85412 63.8598 3.57812 63.5826C2.85855 62.86 1.83342 62.7214 1.83342 62.7214C1.83342 62.7214 1.97142 63.7509 2.69098 64.4735C2.87827 64.6616 3.07541 64.8299 3.26269 64.9586C2.97684 64.8992 2.6417 64.8695 2.2967 64.8695C1.17299 64.8695 0.256287 65.5723 0.256287 65.5723C0.256287 65.5723 1.17299 66.2752 2.2967 66.2752C2.65156 66.2752 2.97684 66.2455 3.26269 66.1861C3.07541 66.3247 2.87827 66.4831 2.69098 66.6712C1.97142 67.3938 1.83342 68.4233 1.83342 68.4233C1.83342 68.4233 2.85855 68.2847 3.57812 67.5621C3.85412 67.2849 4.08083 66.9879 4.23854 66.7207C4.21883 66.8592 4.20897 67.0176 4.20897 67.176C4.20897 67.9185 4.67226 68.5322 4.67226 68.5322C4.67226 68.5322 5.13554 67.9284 5.13554 67.176C5.13554 66.8097 5.0764 66.4732 4.98768 66.2257C5.04682 66.3049 5.11582 66.3841 5.19468 66.4633C5.54953 66.8196 6.05225 66.8889 6.05225 66.8889C6.05225 66.8889 5.98325 66.3841 5.62839 66.0277C5.39182 65.7901 5.12568 65.6317 4.94825 65.5822C5.12568 65.5426 5.38196 65.3843 5.62839 65.1368C5.98325 64.7804 6.05225 64.2756 6.05225 64.2756C6.05225 64.2756 5.54953 64.3448 5.19468 64.7012C5.11582 64.7804 5.04682 64.8596 4.98768 64.9388C5.0764 64.6913 5.13554 64.3547 5.13554 63.9885C5.13554 63.2163 4.67226 62.6125 4.67226 62.6125Z" fill="white"/>
<path d="M83.2134 97.3191C83.2134 97.3191 83.9626 97.2201 84.4949 96.6855C84.6033 96.5766 84.7117 96.4579 84.7906 96.3391C84.7117 96.636 84.6624 97.0023 84.6624 97.4082C84.6624 98.4278 85.2933 99.2494 85.2933 99.2494C85.2933 99.2494 85.9241 98.4278 85.9241 97.4082C85.9241 97.1409 85.9044 96.8835 85.865 96.6558C86.0326 96.9033 86.2396 97.1607 86.486 97.4082C87.2844 98.21 88.418 98.3585 88.418 98.3585C88.418 98.3585 88.2701 97.2102 87.4717 96.4183C87.2253 96.1708 86.969 95.9629 86.7225 95.7946C86.9493 95.8342 87.2055 95.854 87.4717 95.854C88.487 95.854 89.3051 95.2205 89.3051 95.2205C89.3051 95.2205 88.487 94.5869 87.4717 94.5869C87.0774 94.5869 86.7127 94.6364 86.4071 94.7156C86.5254 94.6265 86.6338 94.5275 86.7521 94.4186C87.2745 93.894 87.383 93.1317 87.383 93.1317C87.383 93.1317 86.6338 93.2307 86.1016 93.7653C85.8354 94.0325 85.6481 94.3097 85.5298 94.5374C85.5397 94.4384 85.5496 94.3394 85.5496 94.2305C85.5496 93.7257 85.244 93.3198 85.244 93.3198C85.244 93.3198 84.9384 93.7257 84.9384 94.2305C84.9384 94.5671 85.0074 94.8641 85.106 95.0225C84.9483 94.9235 84.6526 94.8542 84.3174 94.8542C83.8147 94.8542 83.4106 95.1611 83.4106 95.1611C83.4106 95.1611 83.8147 95.4679 84.3174 95.4679C84.4259 95.4679 84.5343 95.458 84.623 95.4481C84.3864 95.557 84.1104 95.755 83.8541 96.0223C83.312 96.5568 83.2134 97.3191 83.2134 97.3191Z" fill="white"/>
<path d="M40.1084 50.8325C40.0591 50.783 40 50.7236 39.9507 50.6741C33.307 44.002 23.8147 42.725 23.8147 42.725C23.8147 42.725 25.0862 52.2579 31.7299 58.93C34.3223 61.5335 37.033 63.6123 39.4973 65.0774C38.1863 64.8992 36.7767 64.8002 35.2982 64.8002C28.4081 64.8002 22.8191 69.0866 22.8191 69.0866C22.8191 69.0866 28.4081 73.373 35.2982 73.373C38.7186 73.373 41.8236 72.8384 44.071 72.0465C43.3514 72.5909 42.622 73.2344 41.9123 73.9471C38.6299 77.2337 38.0089 81.9457 38.0089 81.9457C38.0089 81.9457 42.691 81.3121 45.9734 78.0256C45.9931 78.0058 46.0128 77.986 46.0325 77.9662C46.8211 77.1644 47.5012 76.2734 48.0631 75.3132C43.8048 68.0967 41.311 58.8508 40.1084 50.8325Z" fill="white"/>
<path d="M77.0922 69.0866C77.0922 69.0866 71.5032 64.8002 64.6131 64.8002C63.1444 64.8002 61.725 64.8992 60.414 65.0774C62.8783 63.6123 65.589 61.5236 68.1814 58.93C74.825 52.2579 76.0966 42.725 76.0966 42.725C76.0966 42.725 66.6042 44.002 59.9606 50.6741C58.2159 52.4262 56.7077 54.2279 55.4559 55.98C55.4559 55.98 55.4559 55.98 55.4559 55.9701C55.9882 53.2974 56.3036 50.2286 56.3036 46.9718C56.3036 37.2903 50.7935 29.3017 49.9557 28.1435C49.1178 29.3017 43.6077 37.2903 43.6077 46.9718C43.6077 50.2286 43.9231 53.2875 44.4554 55.9701C44.4554 55.9701 44.4554 55.9701 44.4554 55.98C44.4554 55.9701 44.4455 55.9701 44.4455 55.9602C45.9537 63.6222 48.5757 71.6406 53.1691 77.1544C53.3958 77.4217 53.6323 77.689 53.8886 77.9464C53.9083 77.9662 53.9281 77.986 53.9478 78.0058C57.2302 81.3022 61.9123 81.9259 61.9123 81.9259C61.9123 81.9259 61.2814 77.2237 58.0089 73.9273C57.2992 73.2146 56.5599 72.5711 55.8502 72.0267C58.1074 72.8186 61.2026 73.3531 64.623 73.3531C71.5032 73.3729 77.0922 69.0866 77.0922 69.0866Z" fill="white"/>
</g>
<defs>
<clipPath id="clip0_4_3">
<rect width="100" height="110" fill="white"/>
</clipPath>
</defs>
</svg>
