<svg width="66" height="64" viewBox="0 0 66 64" fill="none" xmlns="http://www.w3.org/2000/svg">
<path d="M63 47.9524C63 47.9524 56.8796 43.2364 49.2542 43.2364C47.6488 43.2364 46.0435 43.3367 44.6388 43.5374C47.3478 41.932 50.3579 39.6241 53.1672 36.8146C60.4916 29.4898 61.8963 19.0544 61.8963 19.0544C61.8963 19.0544 51.4615 20.4592 44.1371 27.784C42.2308 29.6905 40.5251 31.6973 39.2207 33.6037C39.8227 30.6939 40.1238 27.2823 40.1238 23.7704C40.1238 12.3316 33 3 33 3C33 3 25.8762 12.3316 25.8762 23.7704C25.8762 27.3827 26.1772 30.6939 26.7792 33.6037C25.3745 31.6973 23.7692 29.6905 21.8629 27.784C14.5385 20.4592 4.10365 19.0544 4.10365 19.0544C4.10365 19.0544 5.50835 29.4898 12.8328 36.8146C15.6421 39.6241 18.6522 41.932 21.3612 43.5374C19.9565 43.3367 18.3511 43.2364 16.7458 43.2364C9.22069 43.2364 3 47.9524 3 47.9524C3 47.9524 9.12035 52.6684 16.7458 52.6684C20.4581 52.6684 23.8696 52.0663 26.3779 51.1633C25.5752 51.7653 24.7725 52.4677 23.9699 53.2704C20.3578 56.8826 19.6555 62 19.6555 62C19.6555 62 24.7726 61.2976 28.3846 57.6854C30.7926 55.2772 32.398 52.568 32.8997 50.7619C33.301 52.568 34.9063 55.1769 37.4147 57.6854C41.0268 61.2976 46.1438 62 46.1438 62C46.1438 62 45.4414 56.8826 41.8294 53.2704C41.0267 52.4677 40.2241 51.7653 39.4214 51.1633C41.9298 52.0663 45.3411 52.6684 49.0535 52.6684C56.8796 52.568 63 47.9524 63 47.9524Z" stroke="#024638" stroke-width="3"/>
</svg>
