<svg width="17" height="17" viewBox="0 0 17 17" fill="none" xmlns="http://www.w3.org/2000/svg"><path d="M4.26585 14.433L4.5271 14.0066L4.26585 14.433ZM3.27542 13.4425L2.8491 13.7038L3.27542 13.4425ZM13.7246 13.4425L13.2983 13.1813L13.7246 13.4425ZM12.7342 14.433L12.4729 14.0066L12.7342 14.433ZM13.2117 6.66975L13.4729 6.24343L13.2117 6.66975ZM13.872 7.33003L13.4456 7.59128L13.872 7.33003ZM6.23334 6.87503H10.7667V5.87503H6.23334V6.87503ZM9.06667 14.375H7.93334V15.375H9.06667V14.375ZM7.93334 14.375C6.94163 14.375 6.23296 14.3745 5.68093 14.322C5.13634 14.2702 4.79604 14.1714 4.5271 14.0066L4.0046 14.8593C4.45707 15.1365 4.96848 15.2588 5.58627 15.3175C6.19662 15.3756 6.96099 15.375 7.93334 15.375V14.375ZM2.33334 9.77503C2.33334 10.7474 2.33282 11.5118 2.39085 12.1221C2.44959 12.7399 2.57183 13.2513 2.8491 13.7038L3.70174 13.1813C3.53694 12.9123 3.43814 12.572 3.38636 12.0274C3.33387 11.4754 3.33334 10.7667 3.33334 9.77503H2.33334ZM4.5271 14.0066C4.19071 13.8005 3.90788 13.5177 3.70174 13.1813L2.8491 13.7038C3.1377 14.1747 3.53365 14.5707 4.0046 14.8593L4.5271 14.0066ZM13.6667 9.77503C13.6667 10.7667 13.6661 11.4754 13.6137 12.0274C13.5619 12.572 13.4631 12.9123 13.2983 13.1813L14.1509 13.7038C14.4282 13.2513 14.5504 12.7399 14.6092 12.1221C14.6672 11.5118 14.6667 10.7474 14.6667 9.77503H13.6667ZM9.06667 15.375C10.039 15.375 10.8034 15.3756 11.4137 15.3175C12.0315 15.2588 12.543 15.1365 12.9954 14.8593L12.4729 14.0066C12.204 14.1714 11.8637 14.2702 11.3191 14.322C10.7671 14.3745 10.0584 14.375 9.06667 14.375V15.375ZM13.2983 13.1813C13.0921 13.5177 12.8093 13.8005 12.4729 14.0066L12.9954 14.8593C13.4664 14.5707 13.8623 14.1747 14.1509 13.7038L13.2983 13.1813ZM10.7667 6.87503C11.431 6.87503 11.8942 6.87556 12.2525 6.90963C12.6034 6.94299 12.8017 7.00494 12.9504 7.09607L13.4729 6.24343C13.1407 6.03984 12.7712 5.95444 12.3472 5.91412C11.9305 5.8745 11.4117 5.87503 10.7667 5.87503V6.87503ZM14.6667 9.77503C14.6667 9.13003 14.6672 8.61116 14.6276 8.19454C14.5873 7.77048 14.5019 7.40102 14.2983 7.06878L13.4456 7.59128C13.5368 7.73999 13.5987 7.93834 13.6321 8.2892C13.6661 8.6475 13.6667 9.11066 13.6667 9.77503H14.6667ZM12.9504 7.09607C13.1523 7.21975 13.322 7.38945 13.4456 7.59128L14.2983 7.06878C14.0921 6.7324 13.8093 6.44957 13.4729 6.24343L12.9504 7.09607ZM6.23334 5.87503C5.58834 5.87503 5.06947 5.8745 4.65286 5.91412C4.2288 5.95444 3.85933 6.03984 3.5271 6.24343L4.0496 7.09607C4.1983 7.00494 4.39665 6.94299 4.74751 6.90963C5.10581 6.87556 5.56898 6.87503 6.23334 6.87503V5.87503ZM3.33334 9.77503C3.33334 9.11066 3.33387 8.6475 3.36794 8.2892C3.4013 7.93834 3.46326 7.73999 3.55438 7.59128L2.70174 7.06878C2.49815 7.40102 2.41275 7.77048 2.37243 8.19454C2.33282 8.61116 2.33334 9.13003 2.33334 9.77503H3.33334ZM3.5271 6.24343C3.19071 6.44957 2.90788 6.7324 2.70174 7.06878L3.55438 7.59128C3.67807 7.38945 3.84776 7.21975 4.0496 7.09607L3.5271 6.24343Z" fill="#024638"/><path d="M10.8334 5.6667C10.8334 5.94284 11.0572 6.1667 11.3334 6.1667C11.6095 6.1667 11.8334 5.94284 11.8334 5.6667H10.8334ZM5.16669 5.6667C5.16669 5.94284 5.39054 6.1667 5.66669 6.1667C5.94283 6.1667 6.16669 5.94284 6.16669 5.6667H5.16669ZM11.8334 5.6667V4.95836H10.8334V5.6667H11.8334ZM5.16669 4.95836V5.6667H6.16669V4.95836H5.16669ZM8.50002 1.62503C6.65907 1.62503 5.16669 3.11742 5.16669 4.95836H6.16669C6.16669 3.6697 7.21136 2.62503 8.50002 2.62503V1.62503ZM11.8334 4.95836C11.8334 3.11742 10.341 1.62503 8.50002 1.62503V2.62503C9.78868 2.62503 10.8334 3.6697 10.8334 4.95836H11.8334Z" fill="#024638"/><ellipse cx="8.50001" cy="10.625" rx="1.41667" ry="1.41667" fill="#024638"/></svg>
