<svg width="22" height="22" viewBox="0 0 22 22" fill="none" xmlns="http://www.w3.org/2000/svg">
<path d="M21.7809 6.60002C21.7809 6.60002 21.566 5.08323 20.9043 4.41721C20.0664 3.54065 19.1297 3.53635 18.7 3.48479C15.6234 3.26135 11.0043 3.26135 11.0043 3.26135H10.9957C10.9957 3.26135 6.37656 3.26135 3.3 3.48479C2.87031 3.53635 1.93359 3.54065 1.0957 4.41721C0.433984 5.08323 0.223437 6.60002 0.223437 6.60002C0.223437 6.60002 0 8.38323 0 10.1621V11.8293C0 13.6082 0.219141 15.3914 0.219141 15.3914C0.219141 15.3914 0.433984 16.9082 1.09141 17.5742C1.9293 18.4508 3.0293 18.4207 3.51914 18.5153C5.28086 18.6828 11 18.7344 11 18.7344C11 18.7344 15.6234 18.7258 18.7 18.5067C19.1297 18.4551 20.0664 18.4508 20.9043 17.5742C21.566 16.9082 21.7809 15.3914 21.7809 15.3914C21.7809 15.3914 22 13.6125 22 11.8293V10.1621C22 8.38323 21.7809 6.60002 21.7809 6.60002ZM8.72695 13.8531V7.66995L14.6695 10.7723L8.72695 13.8531Z" fill="white"/>
</svg>
